<svg xmlns="http://www.w3.org/2000/svg" xmlns:xlink="http://www.w3.org/1999/xlink" version="1.1" id="Indifferent_1_" x="0px" y="0px" width="100px" height="100px" viewBox="0 0 100 100" enable-background="new 0 0 100 100" xml:space="preserve">
<path d="M49,13c-19.882,0-36,16.118-36,36c0,19.883,16.119,36.001,36,36.001S85,68.883,85,49C85,29.118,68.882,13,49,13z M38.571,31  c3.551,0,6.43,4.029,6.43,8.999c0,4.971-2.879,9-6.43,9c-3.549,0-6.428-4.029-6.428-9C32.143,35.029,35.022,31,38.571,31z   M59.896,67.634H38.02c-2.306,0-4.172-1.687-4.172-3.759c0-2.075,1.866-3.758,4.172-3.758h21.877c2.305,0,4.172,1.683,4.172,3.758  C64.068,65.947,62.201,67.634,59.896,67.634z M59.43,48.999C55.879,49,53,44.97,53,40c0-4.971,2.879-9,6.43-9s6.43,4.029,6.43,8.999  C65.859,44.97,62.98,48.999,59.43,48.999z"/>
</svg>