<svg xmlns="http://www.w3.org/2000/svg" xmlns:xlink="http://www.w3.org/1999/xlink" version="1.1" id="Your_Icon" x="0px" y="0px" width="100px" height="100px" viewBox="0 0 100 100" enable-background="new 0 0 100 100" xml:space="preserve">
<circle cx="43.347" cy="61.223" r="3.641"/>
<circle cx="56.585" cy="61.223" r="3.641"/>
<path d="M94.575,14.746c-0.27-1.145-1.415-1.856-2.561-1.588l-8.644,2.025l1.916-11.95c0.185-1.162-0.605-2.253-1.767-2.439  c-1.164-0.195-2.254,0.604-2.439,1.766l-2.19,13.674l-13.764,3.225c-0.647,0.152-1.186,0.596-1.458,1.202l-0.433,0.967v-8.75  l1.92-4.002c0.509-1.061,0.061-2.333-0.999-2.841c-1.062-0.512-2.332-0.062-2.842,0.998l-4.811,10.026  c-0.297,0.617-0.277,1.337,0.049,1.938l4.308,7.929l-7.132,15.909c-1.243-0.227-2.518-0.363-3.825-0.363  c-1.246,0-2.459,0.129-3.646,0.334l-7.118-15.88l4.306-7.93c0.327-0.6,0.345-1.321,0.05-1.938L38.686,7.033  c-0.507-1.06-1.778-1.51-2.841-0.998c-1.061,0.508-1.508,1.78-1,2.841l1.92,4.002v8.751l-0.435-0.968  c-0.272-0.606-0.811-1.05-1.458-1.202l-13.762-3.225L18.919,2.56c-0.186-1.162-1.282-1.961-2.439-1.766  c-1.162,0.186-1.952,1.278-1.766,2.439l1.915,11.95l-8.644-2.025c-1.145-0.269-2.29,0.443-2.559,1.588  c-0.269,1.145,0.442,2.291,1.588,2.559l15.962,3.741l-9.585,7.351c-0.933,0.715-1.109,2.053-0.394,2.986  c0.419,0.547,1.053,0.834,1.691,0.834c0.454,0,0.909-0.144,1.296-0.44l12.353-9.475l4.539,1.063l3.57,7.964l-3.045-0.456  c-1.161-0.181-2.247,0.627-2.421,1.791c-0.174,1.164,0.628,2.247,1.791,2.421l5.742,0.859l3.596,8.023  c-0.867,0.342-1.711,0.729-2.519,1.177L28.423,33.979c-0.553-0.554-1.366-0.759-2.117-0.535c-0.749,0.225-1.316,0.842-1.475,1.61  c-0.089,0.431-2.121,10.625,3.232,15.979c1.049,1.048,2.198,1.728,3.43,2.053c-1.841,3.152-2.915,6.805-2.915,10.711  c0,7.826,4.251,14.663,10.553,18.373c0.373,0.221,0.756,0.427,1.145,0.624c-0.389-0.195-0.772-0.403-1.145-0.624l1.977,5.996  c0.025,0.309,0.082,0.609,0.163,0.898c-0.07,0.445-0.117,0.896-0.117,1.358c0,4.86,3.954,8.812,8.812,8.812s8.811-3.952,8.811-8.812  c0-0.526-0.055-1.038-0.144-1.539c0.056-0.235,0.107-0.472,0.129-0.718l1.991-6.044c-0.371,0.221-0.752,0.429-1.137,0.626  c0.385-0.197,0.766-0.405,1.137-0.626c6.259-3.719,10.476-10.53,10.476-18.325c0-3.886-1.062-7.519-2.883-10.659  c1.303-0.302,2.517-1.003,3.62-2.104c5.352-5.354,3.321-15.547,3.231-15.979c-0.158-0.768-0.725-1.385-1.475-1.61  c-0.75-0.226-1.562-0.021-2.116,0.535l-11.252,11.25c-0.801-0.453-1.632-0.853-2.491-1.201l3.623-8.083l5.742-0.859  c1.164-0.174,1.966-1.257,1.792-2.421c-0.174-1.163-1.256-1.973-2.422-1.791l-3.044,0.456l3.569-7.964l4.539-1.063l12.353,9.475  c0.388,0.296,0.843,0.44,1.295,0.44c0.64,0,1.273-0.287,1.691-0.834c0.716-0.933,0.54-2.271-0.394-2.986l-9.585-7.351l15.963-3.741  C94.133,17.037,94.844,15.891,94.575,14.746z M28.638,40.217l7.406,7.405c-0.22,0.189-0.433,0.389-0.646,0.587  c-0.69,0.471-1.477,0.84-2.237,0.84l0,0c-0.711,0-1.394-0.337-2.086-1.028C29.206,46.15,28.667,42.958,28.638,40.217z   M41.099,83.181c0.105,0.048,0.209,0.098,0.314,0.146C41.307,83.281,41.204,83.229,41.099,83.181z M43.752,84.18  c0.001,0,0.002,0,0.004,0.002l0,0C43.754,84.182,43.753,84.18,43.752,84.18z M42.507,83.762c0.019,0.008,0.036,0.014,0.055,0.022  C42.543,83.775,42.526,83.77,42.507,83.762z M49.967,94.976c-1.737,0-3.232-0.987-3.999-2.423c-0.342-0.639-0.554-1.356-0.554-2.13  s0.212-1.491,0.554-2.13c0.768-1.433,2.262-2.421,3.999-2.421c1.735,0,3.229,0.988,3.997,2.421c0.342,0.639,0.554,1.356,0.554,2.13  s-0.211,1.491-0.554,2.13C53.196,93.988,51.703,94.976,49.967,94.976z M56.146,84.152c0,0,0.003,0,0.004,0  C56.148,84.152,56.147,84.152,56.146,84.152L56.146,84.152z M58.482,83.285c0.095-0.042,0.187-0.088,0.279-0.129  C58.668,83.197,58.577,83.245,58.482,83.285z M57.336,83.749c0.017-0.007,0.033-0.013,0.05-0.019  C57.369,83.736,57.353,83.742,57.336,83.749z M63.303,74.331c0.256-1.064-0.334-2.165-1.394-2.515  c-1.117-0.368-2.321,0.237-2.689,1.356l-1.981,6.011l-1.515,4.592c-1.545-1.341-3.555-2.163-5.757-2.163  c-2.226,0-4.254,0.837-5.807,2.203l-1.516-4.597l-1.994-6.046c-0.369-1.119-1.573-1.725-2.69-1.356  c-1.098,0.362-1.697,1.531-1.367,2.634c-2.343-2.923-3.754-6.625-3.754-10.653c0-4.768,1.97-9.079,5.132-12.178  c0.71-0.501,1.309-1.035,1.772-1.499c2.842-2.119,6.352-3.389,10.162-3.389c9.409,0,17.065,7.656,17.065,17.065  C66.97,67.773,65.593,71.428,63.303,74.331z M71.399,40.209c-0.025,2.739-0.563,5.93-2.445,7.812  c-0.692,0.691-1.373,1.028-2.084,1.028c-1.025,0-2.108-0.673-2.939-1.372L71.399,40.209z"/>
</svg>