<svg xmlns="http://www.w3.org/2000/svg" xmlns:xlink="http://www.w3.org/1999/xlink" version="1.1" id="Layer_1" x="0px" y="0px" width="90px" height="90px" viewBox="0 0 90 90" enable-background="new 0 0 90 90" xml:space="preserve">
<g>
	<path fill="#000000" d="M38.472,21.745H4.032c-1.358,0-2.458,1.101-2.458,2.459s1.1,2.458,2.458,2.458h34.439   c1.357,0,2.458-1.1,2.458-2.458S39.829,21.745,38.472,21.745z"/>
	<path fill="#000000" d="M4.032,36.982h30.446c1.358,0,2.459-1.102,2.459-2.459c0-1.358-1.101-2.458-2.459-2.458H4.032   c-1.358,0-2.458,1.1-2.458,2.458C1.574,35.881,2.674,36.982,4.032,36.982z"/>
	<path fill="#000000" d="M4.032,57.62h30.446c1.358,0,2.459-1.101,2.459-2.461c0-1.356-1.101-2.455-2.459-2.455H4.032   c-1.358,0-2.458,1.099-2.458,2.455C1.574,56.52,2.674,57.62,4.032,57.62z"/>
	<path fill="#000000" d="M4.032,47.301h27.691c1.358,0,2.459-1.1,2.459-2.458s-1.101-2.459-2.459-2.459H4.032   c-1.358,0-2.458,1.101-2.458,2.459S2.674,47.301,4.032,47.301z"/>
	<path fill="#000000" d="M38.472,63.026H4.032c-1.358,0-2.458,1.097-2.458,2.457s1.1,2.455,2.458,2.455h34.439   c1.357,0,2.458-1.095,2.458-2.455S39.829,63.026,38.472,63.026z"/>
	<path fill="#000000" d="M68.19,22.075c-7.133-1.109-20.909-1.782-21.493-1.81c-0.016,0-0.032,0-0.048,0   c-0.987,0-1.607,0.542-1.927,1.702c-0.326,1.179-3.099,6.019-3.099,23.031c0,17.011,2.774,22.172,3.099,23.032   c0.324,0.859,0.914,1.703,1.882,1.703c0.03,0,0.061,0,0.093-0.004c0.584-0.024,14.36-0.695,21.493-1.809   c10.225-1.592,21.235-9.441,21.235-22.923S78.415,23.666,68.19,22.075z M67.479,63.144c-5.334,0.829-14.99,1.415-18.666,1.615   c-1.502-3.969-2.325-10.941-2.325-19.76c0-12.688,1.636-17.812,2.361-19.757c3.786,0.208,13.33,0.788,18.63,1.613   c8.226,1.279,17.082,7.503,17.082,18.144C84.562,55.639,75.705,61.865,67.479,63.144z"/>
</g>
</svg>