<svg xmlns="http://www.w3.org/2000/svg" xmlns:xlink="http://www.w3.org/1999/xlink" version="1.1" id="Layer_1" x="0px" y="0px" width="100px" height="100px" viewBox="0 0 100 100" enable-background="new 0 0 100 100" xml:space="preserve">
<g id="&#22294;&#23652;_3" display="none">
	<path display="inline" d="M-62.5,84c-0.556-5.979,2.16-11.521,4-17c3.581-10.666,6.762-23.565,12-34c1.278-2.546,3.577-4.508,5-7   c0.84-1.471,1.061-2.468,2-4c1.722-2.808,3.805-6.996,6-11c8.765-15.982,18.765-34.918,28-52c1.296,7.33-1.659,14.655-3,22   c-0.479,2.622-0.253,5.936-1,8c-0.61,1.686-2.999,3.204-4,5c-1.21,2.171-1.996,4.201-3,6c-7.699,13.79-15.151,28.185-23,42   C-47.507,56.094-55.81,69.628-62.5,84z"/>
	<path display="inline" d="M78.5,11c-1.081-8.396,0.566-26.98,0-45c4.596,0.227,8.719,3.378,13,5c4.38,1.659,8.482,3.127,13,5   c5.723,2.373,11.084,4.547,17,7c5.663,2.348,11.216,4.534,17,7c2.355,1.005,6.346,0.884,7,4C122.59-0.909,101.303,5.801,78.5,11z"/>
	<path display="inline" d="M-34.5,107c-11.507-3.493-21.206-8.794-32-13c4.856-11.622,11.994-22.128,18-33   c2.946-5.334,5.704-10.453,9-16c0.699-1.176,0.182-1.146,1-2c2.374-2.478,5.49-10.645,8-15c1.133-1.965,2.817-3.941,4-6   c5.734-9.979,10.596-22.188,18-32c6.029,2.074,11.483,5.271,17,8c5.586,2.762,11.534,4.959,16,9c-0.024,3.451-3.113,5.824-5,9   c-1.205,2.027-1.738,4.891-3,7c-0.24,0.402-1.846,0.656-2,1c-1.006,2.232-2.216,5.246-4,8C-4.616,55.33-18.701,83.049-34.5,107z"/>
	<path display="inline" d="M46.5,21c-0.688,30.886,0.874,62.633,1,95c0.17,4.217-1.536-0.018-3,0c-8.516-8.471-17.361-16.657-26-25   c-4.431-4.279-9.439-7.83-14-12c-4.256-3.893-8.738-8.107-12-13c9.989-20.344,22.968-37.699,33-58   C32.75,12.084,39.634,16.533,46.5,21z"/>
	<path display="inline" d="M25.5-32c-2.579-3.777-11.173-4.515-13.734-8.571c-0.482,0.145-0.99,0.14-1.494-0.155   c-0.135-0.079-0.26-0.183-0.38-0.296C9.777-40.999,9.649-40.988,9.5-41c-4.238-1.941-10.35-7.409-13-5   c1.547,10.555-3.558,23.104-5,34C2.834-6.334,14.166-0.666,25.5,5C26.212-10.699,24.083-22.509,25.5-32z"/>
	<path display="inline" d="M26.5,6c0-10.333,0-20.667,0-31c18.017-1.983,32.634-7.366,51-9c-0.718,12.137-1.253,28.164-1,46   c-10.312,1.688-18.618,5.382-29,7c8.545,0.956,16.741-2.854,25-5c16.076-4.177,33.132-8.564,51-13c8.382-2.08,16.268-5.377,25-6   c-2.829,30.485-5.189,59.077-7,88c-19.784,6.648-39.236,15.312-59,23c-1.805,0.701-4.199,1.293-6,2c-5.201,2.041-10.875,4.646-17,7   c-3.539,1.359-6.921,3.939-11,3c0.646-25.757-0.569-50.206-1-72c-0.155-7.857,1.126-16.479,0-24c-0.25-1.667-0.521-2.623-2-3   C39.801,14.032,31.678,11.489,26.5,6z"/>
</g>
<g id="Captions">
</g>
<g>
	<path fill="#000000" d="M65.248,16.378c-0.774-0.563-1.832-0.559-2.758,0.013c-1.139,0.703-1.387,2.458-0.429,3.407   c0.371,0.367,0.396,0.619,0.175,1.08c-1.982,4.133-3.933,8.28-5.886,12.426c-0.411,0.873-1.442,3.19-2.502,5.579   c0.222,0.086,0.441,0.175,0.657,0.274c0.666-1.48,1.227-2.721,1.456-3.198c0.646-1.342,1.263-2.695,1.904-4.04   c1.329-2.792,2.671-5.579,3.991-8.373c0.352-0.744,0.633-1.517,0.976-2.265c0.191-0.424,0.477-0.689,1.051-0.682   c1.079,0.016,2.016-0.663,2.302-1.553C66.527,17.99,66.206,17.077,65.248,16.378z"/>
	<path fill="#000000" d="M40.119,56.592c-0.709,0.334-1.418,0.666-2.126,1c-0.274,0.106-0.547,0.214-0.821,0.321   c-1.865,0.908-3.73,1.815-5.593,2.729c-0.21,0.104-0.396,0.249-0.595,0.375c-3.09,1.473-6.182,2.942-9.267,4.424   c-0.315,0.152-0.525,0.179-0.839-0.055c-0.825-0.615-1.811-0.584-2.572,0.008c-0.741,0.577-0.982,1.604-0.567,2.424   c0.409,0.809,1.28,1.219,2.27,1.07c0.915-0.138,1.554-0.892,1.687-1.886c0.033-0.248,0.22-0.577,0.436-0.684   c3.031-1.513,6.081-2.994,9.125-4.483c0.313-0.124,0.638-0.226,0.938-0.373c2.171-1.069,4.327-2.166,6.505-3.22   c0.652-0.314,1.312-0.618,1.972-0.92C40.477,57.087,40.296,56.841,40.119,56.592z"/>
	<path fill="#000000" d="M59.738,43.819c0.147,0.243,0.29,0.489,0.42,0.742c8.259-4.326,17.896-9.378,19.987-10.495   c2.096-1.118,4.161-2.282,6.262-3.394c0.279-0.147,0.683-0.196,1-0.137c1.588,0.302,2.375-0.673,2.337-1.541   c0-0.976-0.689-1.676-1.665-1.689c-1.005-0.014-1.729,0.639-1.709,1.617c0.01,0.462-0.146,0.704-0.572,0.933   c-4.055,2.18-8.098,4.379-12.136,6.591C72.863,36.883,66.159,40.421,59.738,43.819z"/>
	<path fill="#000000" d="M69.026,15.67c0.81,0.586,0.393,1.138,0.007,1.761c-1.508,2.437-2.976,4.897-4.46,7.349   c-0.831,1.323-1.671,2.641-2.489,3.971c-1.502,2.436-2.992,4.877-4.479,7.321c-0.148,0.243-0.252,0.508-0.376,0.764   c-0.349,0.516-0.715,1.019-1.038,1.548c-0.162,0.265-0.425,0.702-0.753,1.249c0.206,0.118,0.408,0.242,0.606,0.372   c0.55-0.881,1.128-1.746,1.691-2.619c0.042-0.063,0.06-0.139,0.089-0.208c0.052-0.104,0.104-0.207,0.154-0.311   c0.033-0.043,0.068-0.087,0.101-0.131c0.863-1.372,1.731-2.743,2.589-4.12c0.765-1.229,1.523-2.462,2.271-3.699   c0.731-1.208,1.445-2.424,2.166-3.637c0.027-0.045,0.056-0.09,0.081-0.136c0.077-0.119,0.151-0.238,0.227-0.356   c0.015-0.023,0.027-0.048,0.034-0.075c0.059-0.13-0.235-0.464,0.227-0.362c0.909-1.503,1.81-3.01,2.729-4.506   c0.576-0.939,1.169-1.872,1.792-2.783c0.084-0.122,0.4-0.174,0.586-0.143c1.187,0.195,2.371-0.348,2.87-1.35   c0.521-1.046,0.273-2.231-0.63-2.996c-0.923-0.783-2.377-0.818-3.33-0.08c-0.975,0.755-1.272,2.091-0.695,3.128   C69.007,15.637,69.011,15.659,69.026,15.67z"/>
	<path fill="#000000" d="M70.745,32.414c-0.04,0.037-0.081,0.075-0.121,0.112l-0.003,0.001c0,0,0,0,0-0.001   c-0.579,0.464-1.171,0.915-1.735,1.393c-2.456,2.081-4.904,4.169-7.354,6.259c-0.106,0.091-1.199,1.044-2.694,2.349   c0.157,0.194,0.307,0.396,0.451,0.6c1.006-0.858,1.676-1.432,1.707-1.458c1.541-1.305,3.053-2.639,4.597-3.943   c1.72-1.456,3.464-2.887,5.193-4.33c0.086-0.072,0.15-0.169,0.223-0.255c0.067-0.054,0.135-0.107,0.205-0.161   c0.043-0.036,0.09-0.073,0.134-0.109c3.019-2.551,6.038-5.103,8.911-7.531c0.86,0.194,1.581,0.481,2.308,0.496   c1.615,0.033,2.864-1.179,2.99-2.743c0.118-1.48-1.024-2.814-2.646-3.083c-1.49-0.248-3.054,0.674-3.377,2.132   c-0.137,0.621-0.028,1.332,0.141,1.961c0.105,0.398,0.098,0.599-0.221,0.869C76.54,27.443,73.646,29.931,70.745,32.414z"/>
	<path fill="#000000" d="M40.131,11.039c1.196,5.696,2.396,11.408,3.597,17.12c0.413,2.092,0.812,4.187,1.239,6.277   c0.296,1.443,0.6,2.884,0.901,4.327c0.311-0.11,0.625-0.205,0.947-0.288c-0.339-1.694-0.681-3.388-1.028-5.081   c-0.333-1.632-0.714-3.255-1.074-4.883c0.001-0.042-0.002-0.084-0.009-0.127c-0.034-0.148-0.069-0.296-0.102-0.444   c-0.486-2.367-0.976-4.732-1.457-7.1c-0.218-1.071-0.411-2.147-0.63-3.218c-0.458-2.242-0.925-4.482-1.385-6.712   c2.364-1.444,3.077-3.026,2.233-4.919c-0.723-1.623-2.569-2.517-4.352-2.107c-1.799,0.412-2.956,1.966-2.858,3.838   C36.248,9.525,37.725,10.773,40.131,11.039z"/>
	<path fill="#000000" d="M52.906,38.56c1.492-4.893,3.018-9.925,3.249-10.619c1.123-3.379,2.225-6.762,3.301-10.156   c0.831-2.625,1.607-5.269,2.408-7.904c0.112-0.507,0.253-0.802,0.984-0.745c1.508,0.116,2.83-1.353,2.803-2.915   c-0.028-1.58-1.426-2.938-3.033-2.949c-1.776-0.012-3.162,1.291-3.109,2.949c0.033,1.15,0.555,2.035,1.631,2.593l0.001-0.008   l0.01,0.014c-0.004-0.001-0.007-0.004-0.011-0.005c-0.078,0.407-0.158,0.815-0.238,1.221c-0.644,1.891-1.307,3.772-1.927,5.669   c-0.876,2.673-1.738,5.35-2.572,8.036c-0.406,1.311-2.537,8.576-4.306,14.608C52.371,38.406,52.639,38.482,52.906,38.56z"/>
	<path fill="#000000" d="M48.634,23.491c0.666,0.28,0.878,0.638,0.854,1.327c-0.093,2.533-0.116,5.066-0.172,7.601   c-0.04,1.875-0.092,3.75-0.138,5.626c0,0.024-0.001,0.049-0.001,0.074c0.174-0.008,0.346-0.027,0.522-0.027   c0.134,0,0.264,0.016,0.396,0.02c0.04-2.112,0.079-4.224,0.12-6.336c0.045-2.416,0.107-4.832,0.138-7.249   c0.008-0.55,0.132-0.849,0.802-0.913c1.331-0.126,2.457-2.06,2.095-3.484c-0.401-1.577-1.566-2.456-3.25-2.456h-0.035   c-1.555,0.011-2.777,0.956-3.087,2.511C46.63,21.421,47.126,22.858,48.634,23.491z"/>
	<path fill="#000000" d="M17.178,54.307c-0.989,0.142-1.975,0.302-2.96,0.454c-0.84,0.129-1.681,0.258-2.52,0.389   c-0.079,0.012-0.15,0.018-0.218,0.018c-0.273,0-0.459-0.113-0.622-0.45c-0.599-1.239-1.644-1.998-3.084-2.067   c-0.073-0.004-0.147-0.005-0.217-0.005c-1.291,0-2.324,0.564-3.042,1.664c-1.079,1.65-0.422,3.928,1.404,4.816   C6.443,59.38,7.005,59.5,7.559,59.5c1.396,0,2.738-0.766,3.292-2.051c0.165-0.384,0.255-0.798,0.429-1.354   c0.814-0.116,1.736-0.248,2.658-0.379c0.245-0.164,0.396-0.354,0.396-0.587c0,0.232-0.151,0.423-0.396,0.587   c1.809-0.252,3.618-0.498,5.425-0.756c2.82-0.404,5.64-0.807,8.458-1.224c2.283-0.339,4.564-0.693,6.846-1.046   c0.196-0.029,1.539-0.225,3.51-0.508c-0.06-0.293-0.101-0.59-0.138-0.89c-5.601,0.816-10.407,1.517-11.677,1.703   C23.303,53.446,20.238,53.866,17.178,54.307z"/>
	<path fill="#000000" d="M77.646,67.178c1.533,0.556,3.274,0.029,4.206-1.273c0.877-1.225,0.817-3.134-0.308-4.143   c-1.5-1.349-3.316-1.787-5.201-0.121c-0.154,0.139-0.288,0.296-0.452,0.466c-1.878-0.793-3.736-1.575-5.594-2.36   c-2.3-1.019-4.595-2.049-6.9-3.057c-1.097-0.48-2.199-0.947-3.302-1.414c-0.158,0.296-0.33,0.581-0.511,0.863   c1.659,0.748,3.32,1.496,4.986,2.226c1.728,0.755,3.472,1.463,5.209,2.19c0.115,0.043,0.228,0.087,0.345,0.134   c1.598,0.719,3.192,1.451,4.801,2.147c0.412,0.178,0.534,0.352,0.46,0.807C75.146,65.147,76.122,66.625,77.646,67.178z"/>
	<path fill="#000000" d="M88.018,36.417c0.007,0.438-0.145,0.605-0.55,0.741c-2.227,0.75-4.441,1.527-6.66,2.294   c-1.573,0.521-3.155,1.025-4.72,1.566c-2.641,0.91-5.271,1.843-7.906,2.766c0.068,0.126,0.138,0.253,0.206,0.38   c-0.068-0.127-0.138-0.253-0.206-0.379c-1.096,0.351-2.2,0.684-3.289,1.055c-0.456,0.157-2.024,0.678-4.042,1.35   c0.087,0.253,0.157,0.513,0.224,0.773c1.827-0.595,3.215-1.048,3.572-1.168c1.3-0.438,2.586-0.916,3.879-1.377   c0,0.001,0,0.001,0,0.001c2.511-0.841,5.023-1.671,7.53-2.522c1.446-0.491,2.882-1.012,4.319-1.52   c2.63-0.887,5.259-1.777,7.925-2.678c0.657,1.007,1.646,1.56,2.993,1.299c1.368-0.263,2.297-1.531,2.104-2.819   c-0.207-1.394-1.452-2.398-2.864-2.312C89.114,33.954,88,35.051,88.018,36.417z"/>
	<path fill="#000000" d="M74.434,50.629h0.937c1.021,0,2.042,0.002,3.062,0.016c1.392,0.018,2.789,0.061,4.179,0.147   c0.225,0.016,0.518,0.288,0.621,0.508c0.626,1.321,1.777,2.078,3.106,2.078c0.313,0,0.638-0.043,0.965-0.129   c1.47-0.386,2.311-1.665,2.231-3.389c-0.059-1.24-1.107-2.337-2.487-2.604c-0.251-0.048-0.498-0.072-0.739-0.072   c-1.364,0-2.52,0.761-2.978,2.056c-0.149,0.423-0.354,0.565-0.813,0.565h-0.019c-1.456-0.009-2.913-0.011-4.372-0.011   c-1.237,0-10.95,0.002-16.671,0.002c0,0.019,0.004,0.038,0.004,0.055c0,0.262-0.022,0.519-0.039,0.776   C66.379,50.629,74.102,50.629,74.434,50.629z"/>
	<path fill="#000000" d="M62.013,34.824c-0.731,0.928-1.476,1.848-2.202,2.784c-0.396,0.511-1.373,1.777-2.548,3.304   c0.232,0.198,0.461,0.401,0.678,0.616c0.841-1.094,1.51-1.963,1.819-2.359c0.581-0.746,1.227-1.446,1.813-2.187   c0.41-0.518,0.774-1.072,1.156-1.61c1.583-2.057,3.179-4.104,4.73-6.182c0.143-0.192,0.271-0.25,0.405-0.25   c0.124,0,0.254,0.05,0.398,0.089c0.279,0.075,0.561,0.111,0.834,0.111c1.162,0,2.215-0.649,2.666-1.716   c0.549-1.298,0.021-2.769-1.245-3.476c-0.43-0.238-0.921-0.356-1.41-0.356c-0.732,0-1.465,0.261-1.992,0.757   c-1.017,0.96-1.266,2.258-0.519,3.396c0.322,0.49,0.203,0.775-0.093,1.162C64.997,30.874,63.51,32.85,62.013,34.824z"/>
	<path fill="#000000" d="M76.823,46.084c1.372-0.273,2.739-0.571,4.111-0.856c0.04-0.009,0.086-0.013,0.13-0.015   c0.206-0.002,0.412-0.004,0.621-0.007c0.545,0.852,1.315,1.347,2.376,1.226c0.95-0.108,1.627-0.632,1.939-1.517   c0.447-1.254-0.279-2.52-1.613-2.856c-1.291-0.326-2.551,0.427-2.864,1.677c-0.048,0.197-0.273,0.354-0.417,0.529   c-2.175,0.414-4.351,0.816-6.522,1.243c-2.039,0.4-7.939,1.547-13.274,2.588c0.049,0.318,0.087,0.641,0.109,0.968   c3.578-0.682,7.051-1.346,7.81-1.492C71.761,47.084,74.293,46.587,76.823,46.084z"/>
	<path fill="#000000" d="M52.054,90.334c-0.079,0.023-0.158,0.049-0.238,0.074v-5.831c-0.048-3.864-0.087-7.729-0.145-11.594   c-0.046-3.094-0.11-6.186-0.168-9.277c-0.01-0.749-0.021-1.496-0.031-2.246c-0.27,0.043-0.539,0.08-0.814,0.104   c0.004,0.366,0.006,0.731,0.01,1.098c0.002,0.106,0.076,0.212,0.117,0.321c0.016,2.582,0.031,5.167,0.047,7.75   c0.021,0.061,0.041,0.121,0.061,0.18c0.02,3.158,0.036,6.315,0.067,9.475c0.002,0.321,0.077,0.639,0.118,0.959   c0,0.224,0,0.447-0.001,0.673l0.003,1.578l0.054,5.915c0.005,0.55,0.092,1.016-0.74,1.25c-0.956,0.271-1.391,1.356-1.236,2.392   c0.15,1.001,1.002,1.784,2.125,1.956c0.951,0.142,1.992-0.368,2.46-1.206c0.499-0.896,0.398-2.003-0.332-2.674   C53.018,90.873,52.509,90.629,52.054,90.334z"/>
	<path fill="#000000" d="M57.854,85.024c-0.164-0.086-0.41-0.055-0.549-0.162c-0.191-0.147-0.418-0.36-0.449-0.57   c-0.144-0.967-0.226-1.941-0.329-2.913c-0.161-1.488-0.311-2.977-0.482-4.464c-0.219-1.905-0.451-3.81-0.688-5.712   c-0.224-1.81-0.468-3.618-0.687-5.428c-0.204-1.679-0.381-3.361-0.588-5.039c-0.312,0.13-0.631,0.249-0.955,0.352   c0.059,0.458,0.118,0.916,0.174,1.375c0.231,1.9,0.458,3.804,0.687,5.705c0.211,1.791,0.417,3.579,0.635,5.367   c0.276,2.275,0.562,4.548,0.847,6.823c0.051,0.389,0.116,0.774,0.175,1.162c0.01,0.183,0.02,0.365,0.03,0.549l0.049,0.044   c-0.004,0.04-0.022,0.078-0.035,0.117c0.089,0.692,0.221,1.382,0.24,2.08c0.007,0.259-0.182,0.62-0.403,0.774   c-0.869,0.602-1.262,1.558-0.946,2.521c0.305,0.925,1.145,1.515,2.149,1.515c0.023,0,0.045,0,0.066-0.003   c1.033-0.025,1.904-0.706,2.166-1.689C59.199,86.528,58.729,85.484,57.854,85.024z"/>
	<path fill="#000000" d="M42.108,72.873c0.349-1.038,0.691-2.075,1.05-3.11c0.295-0.853,0.625-1.699,0.909-2.554   c0.59-1.779,1.159-3.564,1.736-5.348c0.094-0.279,0.188-0.559,0.283-0.838c-0.27-0.09-0.536-0.188-0.797-0.297   c-0.075,0.237-0.152,0.475-0.227,0.71c-1.26,3.723-2.521,7.445-3.781,11.166c-0.029,0.087-0.028,0.184-0.042,0.273   c-1.719,5.083-3.445,10.165-5.147,15.254c-0.137,0.409-0.308,0.537-0.758,0.537c-2.049-0.004-3.621,1.419-3.682,3.282   c-0.062,1.907,1.446,3.468,3.471,3.59c1.433,0.087,2.938-0.857,3.467-2.176c0.593-1.474,0.123-3.083-1.184-4.038   c-0.192-0.141-0.394-0.267-0.617-0.416c0.955-2.865,1.902-5.707,2.85-8.552c0.587-1.765,1.178-3.528,1.763-5.294   c0.1-0.303,0.184-0.606,0.275-0.913c0.079-0.204,0.157-0.406,0.237-0.608c0.03-0.118,0.06-0.236,0.091-0.353   c0.024-0.071,0.049-0.14,0.074-0.207C42.095,72.946,42.104,72.91,42.108,72.873z"/>
	<path fill="#000000" d="M65.488,76.755c-0.916-1.551-1.841-3.12-2.763-4.688c-0.104-0.182-0.207-0.36-0.309-0.539l0.001,0.001   c-0.066-0.118-0.134-0.238-0.199-0.359c-0.026-0.039-0.053-0.08-0.078-0.123c-0.348-0.649-0.681-1.308-1.049-1.945   c-1.736-3-3.479-5.995-5.223-8.988c-0.043-0.074-0.093-0.146-0.141-0.218c-0.503,0.306-1.023,0.583-1.569,0.813   c0.861,2.599,1.72,5.196,2.574,7.796c1.112,3.375,2.217,6.751,3.324,10.127c0.538,1.63,1.095,3.256,1.598,4.897   c0.091,0.294,0.041,0.669-0.064,0.967c-0.23,0.652-0.015,1.405,0.55,1.661c0.688,0.31,1.406,0.081,1.757-0.554   c0.328-0.599,0.043-1.304-0.592-1.688c-0.275-0.166-0.553-0.46-0.652-0.749c-1.319-3.902-2.612-7.812-3.906-11.723   c-0.772-2.335-1.526-4.676-2.305-7.01c-0.388-1.167-0.782-2.333-1.171-3.499c1.143,2.017,2.283,4.037,3.438,6.047   c0.897,1.562,1.821,3.109,2.733,4.661c1.056,1.858,2.111,3.717,3.157,5.557c-1.552,2.102-1.616,3.775-0.219,5.161   c1.222,1.214,3.138,1.441,4.562,0.542c1.411-0.892,1.937-2.697,1.231-4.237C69.403,76.991,67.74,76.299,65.488,76.755z"/>
	<path fill="#000000" d="M46.637,83.06c-0.446-0.201-0.535-0.426-0.497-0.857c0.174-1.938,0.303-3.879,0.469-5.817   c0.033-0.391,0.147-0.773,0.225-1.161c0.026-0.153,0.053-0.31,0.079-0.465c0.014-0.159,0.027-0.318,0.041-0.479   c0.102-0.671,0.236-1.337,0.301-2.01c0.253-2.592,0.473-5.184,0.726-7.775c0.097-0.993,0.199-1.985,0.299-2.979   c-0.307-0.038-0.614-0.08-0.913-0.142c-0.263,2.559-0.554,5.113-0.824,7.67c-0.186,1.767-0.358,3.534-0.537,5.301   c-0.027,0.321-0.054,0.642-0.081,0.961c-0.039,0.105-0.079,0.209-0.118,0.313c-0.216,2.22-0.421,4.438-0.664,6.655   c-0.022,0.207-0.25,0.546-0.423,0.571c-2.359,0.349-3.501,2.928-2.092,4.78c0.836,1.101,2.166,1.564,3.5,1.227   c1.24-0.315,2.192-1.392,2.325-2.624C48.603,84.838,47.956,83.648,46.637,83.06z"/>
	<path fill="#000000" d="M93.552,54.64c-1.814-0.162-3.724,0.886-4.512,2.574c-0.172,0.37-0.367,0.349-0.649,0.351   c-1.684-0.375-3.36-0.766-5.051-1.118c-1.642-0.346-3.295-0.651-4.944-0.975c-1.386-0.297-2.771-0.601-4.16-0.89   c-0.247-0.052-6.153-1.453-12.912-3.057c-0.038,0.253-0.073,0.506-0.127,0.755c6.168,1.567,11.424,2.868,11.658,2.911   c1.758,0.328,3.501,0.704,5.254,1.061c0.047,0.008,0.093,0.015,0.14,0.021l0.437,0.126c3.14,0.666,6.281,1.329,9.422,1.994   c0.448,0.049,0.594,0.281,0.573,0.714c-0.098,2.194,1.992,4.289,4.39,4.283c2.559-0.008,4.516-1.741,4.667-4.219   C97.878,56.868,96.023,54.861,93.552,54.64z"/>
	<path fill="#000000" d="M79.783,73.817c-0.582,0.346-0.908,0.211-1.361-0.142c-3.372-2.615-6.752-5.213-10.132-7.817   c-0.063-0.057-0.126-0.113-0.19-0.17c-0.042-0.015-0.084-0.035-0.121-0.062c-0.061-0.054-0.122-0.108-0.18-0.164   c0,0-0.003,0.001-0.003,0c-1.246-1.012-2.478-2.046-3.75-3.031c-1.949-1.512-3.911-3.007-5.872-4.504   c-0.461,0.483-0.962,0.925-1.498,1.325c3.66,4.486,7.543,9.249,8.264,10.038c0.647,0.711,1.328,1.396,1.943,2.132   c0.159,0.192,0.228,0.558,0.163,0.799c-0.213,0.786-0.007,1.501,0.647,1.933c0.701,0.46,1.515,0.428,2.167-0.084   c0.501-0.396,0.728-1.359,0.452-1.937c-0.353-0.743-0.974-1.051-1.852-0.997c-0.254,0.018-0.611-0.055-0.767-0.22   c-1.156-1.236-5.64-6.677-9.793-11.701c2.81,2.198,5.629,4.383,8.448,6.563c0.264,0.204,0.565,0.367,0.853,0.551   c3.526,2.767,7.044,5.542,10.58,8.301c0.414,0.324,0.559,0.605,0.369,1.127c-0.646,1.786,0.079,3.566,1.759,4.485   c1.643,0.898,3.711,0.519,4.892-0.893c1.162-1.389,1.122-3.325-0.091-4.727C83.528,73.261,81.396,72.863,79.783,73.817z"/>
	<path fill="#000000" d="M33.391,18.313c0.805-0.002,1.062,0.279,1.315,0.934c1.427,3.69,2.909,7.361,4.37,11.038   c0.264,0.665,0.523,1.332,0.784,1.997c0.093,0.076,0.183,0.148,0.274,0.222c-0.092-0.074-0.181-0.146-0.275-0.222   c0.724,1.868,1.435,3.738,2.167,5.603c0.312,0.795,0.627,1.588,0.939,2.383c0.283-0.201,0.575-0.387,0.875-0.563   c-0.941-2.388-1.885-4.775-2.831-7.163c-0.051-0.129-0.137-0.245-0.207-0.366c-0.028-0.051-0.054-0.1-0.08-0.149   c-0.035-0.094-0.068-0.187-0.103-0.281c-1.78-4.573-3.56-9.146-5.356-13.757c1.023-0.716,1.67-1.629,1.626-2.899   c-0.055-1.631-1.469-2.945-3.208-2.957c-1.798-0.011-3.245,1.326-3.284,3.037C30.361,16.821,31.704,18.318,33.391,18.313z"/>
	<path fill="#000000" d="M31.551,73.064c-0.007-0.205-0.059-0.475,0.05-0.611c0.987-1.25,1.979-2.5,3.02-3.707   c1.94-2.252,3.923-4.47,5.872-6.715c0.155-0.18,1.16-1.305,2.373-2.671c-0.25-0.181-0.495-0.367-0.73-0.566   c-1.54,1.696-2.887,3.186-3.231,3.583c-1.699,1.964-3.375,3.946-5.064,5.917c-0.96,1.121-1.941,2.23-2.884,3.364   c-0.288,0.345-0.564,0.41-1.006,0.315c-1.218-0.261-2.342,0.45-2.677,1.637c-0.299,1.063,0.404,2.242,1.561,2.616   c1.061,0.344,2.444-0.203,2.769-1.257C31.781,74.391,31.573,73.704,31.551,73.064z"/>
	<path fill="#000000" d="M4.66,49.634c1.397,0.365,2.942-0.248,3.664-1.455c0.565-0.945,0.842-0.98,2.008-0.878   c2.068,0.18,4.147,0.243,6.222,0.353c0.561,0.029,1.122,0.044,1.683,0.064c0.064,0.01,0.128,0.019,0.192,0.028   c0.139-0.006,0.278-0.012,0.416-0.02c0.068,0.019,0.136,0.039,0.203,0.057c0.124,0.001,0.247,0.002,0.37,0.002   c1.53,0.092,3.06,0.184,4.589,0.271c1.917,0.108,3.831,0.218,5.747,0.311c1.015,0.048,4.359,0.186,8.243,0.341   c0.047-0.463,0.126-0.92,0.227-1.368c-0.759-0.283-1.518-0.565-2.277-0.846c-0.112-0.041-0.236-0.05-0.353-0.073   c-1.257-0.485-2.511-0.979-3.772-1.456c-2.627-0.991-5.258-1.973-7.889-2.958c-0.133-0.049-0.278-0.071-0.417-0.107c0,0,0,0,0,0   c-0.033-0.016-0.069-0.025-0.106-0.031c-0.11-0.038-0.218-0.079-0.328-0.119c-0.04-0.017-0.082-0.033-0.124-0.046   c-0.06,0.046-0.119,0.092-0.178,0.139c-0.002-0.073-0.006-0.147-0.007-0.22c-1.999-0.749-3.991-1.512-5.999-2.233   c-0.43-0.154-0.487-0.357-0.415-0.735c0.485-2.508-1.645-4.729-3.819-4.959c-2.75-0.292-5.035,1.436-5.22,3.89   c-0.2,2.608,1.721,4.755,4.391,4.804c1.831,0.033,3.24-0.778,4.206-2.332c2.2,0.803,4.384,1.6,6.569,2.397   c0.063,0.03,0.127,0.059,0.189,0.09c0.042,0.018,0.086,0.029,0.132,0.031c0,0,0,0,0,0c1.964,0.755,3.919,1.531,5.893,2.262   c1.994,0.738,4.006,1.434,6.01,2.147h0.001c0.593,0.252,1.18,0.519,1.779,0.753c-1.914-0.085-3.334-0.148-3.769-0.172   c-4.496-0.247-8.993-0.481-13.488-0.72c-0.07-0.002-0.144,0.03-0.214,0.046c-0.085,0.003-0.17,0.007-0.254,0.011   c-0.167-0.018-0.335-0.039-0.503-0.058c-3.14-0.164-6.282-0.328-9.411-0.491c-0.163-0.411-0.281-0.792-0.459-1.143   c-0.622-1.216-2.102-1.912-3.419-1.631c-1.523,0.322-2.644,1.529-2.683,2.888C2.243,47.971,3.203,49.252,4.66,49.634z"/>
	<path fill="#000000" d="M23.121,21.915c0.141-0.043,0.277-0.091,0.485-0.16c1.517,1.902,3.045,3.817,4.575,5.732   c0.967,1.251,1.926,2.509,2.905,3.751c2.037,2.583,4.083,5.159,6.129,7.733c1.03,1.297,2.061,2.592,3.099,3.881   c0.376-0.499,0.785-0.972,1.232-1.408c-0.239-0.492-0.474-0.987-0.719-1.476c-0.89-1.781-1.791-3.559-2.683-5.339   c-1.615-3.223-3.222-6.448-4.842-9.668c-1.335-2.653-2.681-5.301-4.026-7.95c-1.157-2.28-2.318-4.559-3.48-6.844   c1.26-1.019,1.662-2.267,1.116-3.738c-0.469-1.262-1.756-2.04-3.175-2.006c-1.297,0.031-2.49,0.968-2.917,2.185   c-0.804,2.29,1.464,4.366,3.455,4.041c0.418-0.068,0.661,0.073,0.86,0.462c0.97,1.905,2.002,3.783,2.967,5.691   c2.226,4.404,4.422,8.82,6.637,13.229c1.829,3.637,3.663,7.27,5.506,10.901c0.167,0.326,0.344,0.647,0.523,0.968   c-1.062-1.369-1.864-2.401-2.169-2.795c-1.295-1.67-2.607-3.327-3.923-4.983c-1.538-1.937-3.086-3.868-4.634-5.797   c-0.389-0.485-0.798-0.955-1.197-1.432c-1.357-1.724-2.709-3.451-4.073-5.17c-0.252-0.319-0.404-0.546-0.104-0.971   c0.932-1.314,0.674-2.992-0.535-4.035c-1.153-0.997-2.913-1.066-4.127-0.164c-1.192,0.886-1.537,2.561-0.803,3.887   C19.928,21.753,21.588,22.379,23.121,21.915z"/>
	<path fill="#000000" d="M17.322,32.168c0.552,0.426,1.187,0.702,1.812,0.748c0.492,0.037,0.978-0.068,1.41-0.354   c0.417-0.272,0.763-0.362,1.07-0.339c0.567,0.042,0.995,0.47,1.473,0.82c2.122,1.555,4.211,3.151,6.32,4.724   c0.478,0.357,0.979,0.682,1.47,1.023c0.598,0.473,1.186,0.959,1.799,1.415c2.124,1.58,4.253,3.152,6.382,4.726   c0.151-0.322,0.315-0.634,0.494-0.94c-0.036-0.026-0.071-0.054-0.107-0.081c-1.779-1.325-3.582-2.62-5.383-3.919   c-0.801-0.577-1.625-1.125-2.437-1.688c0,0,0,0,0,0c-0.089-0.061-0.176-0.119-0.265-0.179c-0.049-0.045-0.1-0.092-0.149-0.139   h-0.002c-0.091-0.057-0.182-0.113-0.274-0.17h0c-0.048-0.048-0.095-0.096-0.144-0.144c-2.234-1.68-4.469-3.361-6.706-5.038   c-0.153-0.116-0.333-0.2-0.488-0.312c-0.368-0.263-0.729-0.532-1.089-0.802c-0.537-0.401-0.055-0.828-0.01-1.225   c0.205-1.804-0.87-3.324-2.606-3.607c-0.11-0.018-0.217-0.031-0.324-0.038c-1.69-0.125-3.169,0.948-3.455,2.648   C15.92,30.442,16.374,31.436,17.322,32.168z"/>
	<path fill="#000000" d="M31.15,65.582c0.898-0.552,1.772-1.139,2.658-1.709c0.515-0.307,4.149-2.608,8.21-5.185   c-0.242-0.211-0.477-0.428-0.701-0.656c-3.392,2.164-6.201,3.958-6.585,4.202c-0.526,0.33-1.028,0.693-1.542,1.042l0,0   c-2.027,1.214-4.061,2.419-6.08,3.646c-0.986,0.6-1.95,1.234-2.923,1.852c-1.776,1.078-3.563,2.138-5.316,3.247   c-0.418,0.266-0.646,0.282-1.046-0.035c-1.206-0.96-2.98-0.87-4.183,0.145c-1.136,0.956-1.384,2.631-0.58,3.925   c0.778,1.25,2.422,1.791,3.91,1.287c1.42-0.481,2.386-1.99,2.049-3.427c-0.164-0.704,0.009-0.958,0.652-1.315   c1.55-0.862,3.007-1.879,4.505-2.832c0.097-0.06,0.216-0.086,0.327-0.129c0.148-0.095,0.296-0.189,0.446-0.283H24.95   C27.018,68.1,29.09,66.849,31.15,65.582z"/>
	<path fill="#000000" d="M39.018,54.69C29.594,57.147,19.47,59.788,18.662,60c-3.956,1.034-7.906,2.091-11.865,3.111   c-0.206,0.052-0.535-0.105-0.728-0.257c-0.74-0.584-1.762-0.681-2.448-0.184c-0.634,0.457-0.854,1.472-0.5,2.243   c0.321,0.706,0.959,0.942,1.668,0.952c0.732,0.011,1.387-0.302,1.606-1c0.187-0.597,0.564-0.784,1.125-0.932   c3.274-0.86,19.212-5.054,31.922-8.401C39.289,55.26,39.15,54.977,39.018,54.69z"/>
	<path fill="#000000" d="M44.818,60.514c-0.28-0.131-0.555-0.268-0.822-0.42c-0.56,0.928-1.114,1.848-1.658,2.764   c-0.758,1.281-1.498,2.574-2.24,3.865c-0.069,0.117-0.092,0.262-0.136,0.392c-1.265,2.142-2.53,4.281-3.791,6.424   c-0.72,1.226-1.431,2.453-2.165,3.712c-0.389-0.08-0.772-0.132-1.15-0.132c-0.558,0-1.101,0.11-1.621,0.406   c-1.6,0.906-2.114,2.841-1.149,4.341c0.617,0.959,1.729,1.497,2.836,1.497c0.581,0,1.159-0.148,1.665-0.461   c1.621-1.006,2.081-3.024,0.889-4.475c-0.497-0.606-0.416-0.979-0.069-1.567c1.757-2.979,3.468-5.98,5.192-8.977   c0.057-0.101,0.074-0.223,0.109-0.333c0.042-0.054,0.084-0.105,0.126-0.16h-0.001c0.987-1.66,1.991-3.31,2.952-4.981   C44.143,61.788,44.48,61.154,44.818,60.514z"/>
	<path fill="#000000" d="M44.435,12.388c-0.013,0.038-0.031,0.075-0.037,0.114l0.052,0.043C44.444,12.493,44.44,12.44,44.435,12.388   z"/>
</g>
<circle fill-rule="evenodd" clip-rule="evenodd" fill="#000000" cx="49.802" cy="49.764" r="9.097"/>
</svg>