<?xml version="1.0" encoding="utf-8"?>
<!-- Generator: Adobe Illustrator 15.0.0, SVG Export Plug-In . SVG Version: 6.00 Build 0)  -->
<!DOCTYPE svg PUBLIC "-//W3C//DTD SVG 1.1//EN" "http://www.w3.org/Graphics/SVG/1.1/DTD/svg11.dtd">
<svg version="1.1" xmlns="http://www.w3.org/2000/svg" xmlns:xlink="http://www.w3.org/1999/xlink" x="0px" y="0px" width="610.2px"
	 height="264.96px" viewBox="0 0 610.2 264.96" enable-background="new 0 0 610.2 264.96" xml:space="preserve">
<g id="The_Living_Room">
	<g>
		<path d="M58.379,39.905L45.666,81.733c-0.801,2.623-1.201,4.266-1.201,4.928c0,1.381,0.601,2.381,1.801,3.002
			c1.201,0.621,2.547,0.932,4.038,0.932h1.491l-0.58,1.905H27.153l0.58-1.905h1.243c1.739,0,3.223-0.296,4.452-0.89
			c1.229-0.593,2.098-1.325,2.609-2.195c0.51-0.87,1.222-2.768,2.133-5.695L51.09,39.408c-4.583-0.414-8.476-0.621-11.679-0.621
			c-3.479,0-6.088,0.29-7.827,0.87c-1.739,0.58-2.609,1.449-2.609,2.609c0,0.442,0.151,1.063,0.456,1.864
			c0.275,0.773,0.414,1.353,0.414,1.739c0,0.746-0.269,1.388-0.808,1.926c-0.539,0.539-1.236,0.808-2.091,0.808
			c-1.077,0-1.912-0.414-2.506-1.242c-0.594-0.829-0.89-1.753-0.89-2.775c0-2.208,1.249-4.134,3.748-5.777
			c2.498-1.642,6.896-2.464,13.19-2.464c3.23,0,9.359,0.373,18.388,1.118c6.46,0.552,11.306,0.828,14.536,0.828
			c3.092,0,4.804-0.814,5.135-2.443c0.221-1.16,0.801-1.739,1.74-1.739c1.325,0,1.988,0.704,1.988,2.112
			c0,3.01-3.189,4.514-9.567,4.514C69.671,40.733,64.895,40.458,58.379,39.905z"/>
		<path d="M79.435,93.122h-4.928l14.536-47.833c0.828-2.706,1.242-4.279,1.242-4.721c0-0.635-0.186-1.09-0.559-1.367
			c-0.373-0.276-1.291-0.414-2.754-0.414h-1.325l0.497-1.74c4.39-0.11,7.647-0.607,9.773-1.491h1.036l-9.401,30.895
			c4.97-6.019,9.497-9.028,13.583-9.028c1.85,0,3.23,0.387,4.142,1.16s1.367,1.946,1.367,3.52c0,1.243-0.815,4.197-2.443,8.863
			l-3.645,10.395c-1.408,4.058-2.112,6.405-2.112,7.04c0,0.69,0.138,1.215,0.414,1.574c0.276,0.359,0.69,0.539,1.243,0.539
			c0.994,0,2.112-0.593,3.354-1.781c1.242-1.187,2.305-2.664,3.189-4.432h2.029c-1.408,2.816-3.079,5.081-5.011,6.792
			c-1.933,1.712-3.769,2.568-5.508,2.568c-1.271,0-2.361-0.47-3.272-1.408s-1.367-2.181-1.367-3.727
			c0-1.657,0.772-4.597,2.319-8.821l3.52-9.567c1.629-4.39,2.443-7.15,2.443-8.283c0-0.689-0.186-1.208-0.559-1.553
			c-0.373-0.345-0.946-0.518-1.719-0.518c-1.242,0-2.706,0.504-4.39,1.512c-1.685,1.008-3.438,2.692-5.26,5.053
			c-1.822,2.36-3.154,4.576-3.996,6.647c-0.843,2.07-1.94,5.37-3.292,9.898L79.435,93.122z"/>
		<path d="M134.863,81.94h1.988c-3.506,7.813-8.007,11.72-13.501,11.72c-2.264,0-4.107-0.794-5.529-2.381s-2.133-3.734-2.133-6.44
			c0-3.423,0.918-7.289,2.754-11.596c1.835-4.307,4.445-8.021,7.827-11.141c3.382-3.12,6.329-4.68,8.842-4.68
			c1.546,0,2.719,0.49,3.52,1.47c0.801,0.98,1.201,2.202,1.201,3.665c0,2.982-1.491,5.847-4.473,8.593
			c-2.982,2.748-7.455,5.391-13.418,7.931c-0.773,2.402-1.16,4.68-1.16,6.833c0,1.768,0.345,3.093,1.035,3.976
			c0.69,0.884,1.711,1.325,3.065,1.325C128.665,91.217,131.991,88.125,134.863,81.94z M122.563,76.97
			c3.562-1.601,6.764-3.81,9.608-6.626c2.843-2.816,4.266-5.369,4.266-7.661c0-1.049-0.214-1.829-0.642-2.34
			c-0.429-0.51-1.07-0.766-1.926-0.766c-1.657,0-3.61,1.609-5.86,4.825C125.758,67.618,123.943,71.808,122.563,76.97z"/>
		<path d="M215.115,78.42h1.781L212.299,92.5h-44.52l0.58-1.905h1.325c1.712,0,3.161-0.311,4.349-0.932
			c1.187-0.621,1.994-1.339,2.423-2.153c0.428-0.814,1.056-2.602,1.884-5.363l10.851-35.74c0.855-2.761,1.284-4.5,1.284-5.218
			c0-1.96-1.795-2.94-5.384-2.94h-1.118l0.58-1.905h22.943l-0.58,1.905h-1.491c-1.877,0-3.341,0.235-4.39,0.704
			c-1.05,0.47-1.829,1.125-2.34,1.967c-0.511,0.842-1.305,3.044-2.381,6.605l-10.437,34.374c-0.801,2.65-1.201,4.28-1.201,4.887
			c0,1.298,0.518,2.285,1.553,2.961c1.036,0.677,3.334,1.015,6.896,1.015h2.816c5.77,0,10.119-1.401,13.045-4.204
			C211.912,83.756,213.956,81.043,215.115,78.42z"/>
		<path d="M237.164,83.431h1.988c-1.298,2.679-2.989,5.053-5.073,7.124c-2.085,2.07-4.094,3.106-6.026,3.106
			c-1.298,0-2.437-0.463-3.417-1.387c-0.98-0.925-1.47-2.285-1.47-4.08c0-1.463,0.772-4.266,2.319-8.407l4.763-12.631
			c1.104-2.954,1.657-4.749,1.657-5.384c0-0.552-0.131-0.966-0.394-1.243c-0.263-0.275-0.656-0.414-1.18-0.414
			c-1.077,0-2.354,0.835-3.831,2.505c-1.477,1.671-2.52,3.183-3.126,4.535h-1.988c1.518-3.009,3.251-5.384,5.197-7.124
			c1.946-1.739,3.762-2.609,5.446-2.609c1.297,0,2.361,0.442,3.189,1.325c0.828,0.884,1.243,2.043,1.243,3.479
			c0,1.463-0.732,4.141-2.195,8.034l-3.976,10.768c-1.464,3.893-2.195,6.336-2.195,7.33c0,0.801,0.158,1.402,0.476,1.802
			c0.317,0.4,0.78,0.601,1.387,0.601C232,90.761,234.403,88.318,237.164,83.431z M234.099,39.159c0-0.994,0.352-1.843,1.056-2.547
			s1.553-1.056,2.547-1.056s1.843,0.352,2.547,1.056s1.056,1.553,1.056,2.547c0,0.994-0.352,1.85-1.056,2.568
			c-0.704,0.718-1.553,1.077-2.547,1.077c-1.022,0-1.878-0.366-2.568-1.098C234.444,40.975,234.099,40.126,234.099,39.159z"/>
		<path d="M247.782,63.842h-1.698c1.297-4.279,3.078-6.419,5.342-6.419c1.215,0,2.416,1.008,3.603,3.023
			c0.441,0.773,0.98,1.16,1.615,1.16c0.663,0,1.173-0.565,1.532-1.698c0.524-1.657,1.201-2.485,2.029-2.485
			c0.635,0,0.953,0.304,0.953,0.911c0,0.58-0.428,1.671-1.284,3.271c-3.313,6.185-5.598,10.968-6.854,14.35
			c-1.257,3.382-1.884,6.413-1.884,9.09c0,1.933,0.414,3.431,1.242,4.494c0.828,1.063,1.781,1.594,2.857,1.594
			c3.23,0,6.371-2.519,9.422-7.558c3.05-5.038,4.576-9.932,4.576-14.681c0-1.877-0.4-3.754-1.201-5.632
			c-0.497-1.16-0.745-2.167-0.745-3.023c0-1.877,0.704-2.816,2.112-2.816c0.829,0,1.505,0.483,2.029,1.449
			c0.524,0.967,0.787,2.278,0.787,3.935c0,3.672-0.801,8.179-2.402,13.521c-1.601,5.343-3.907,9.567-6.916,12.673
			s-6.157,4.659-9.442,4.659c-2.181,0-3.928-0.677-5.239-2.029c-1.312-1.353-1.967-3.23-1.967-5.632
			c0-2.485,0.676-5.246,2.029-8.283c1.353-3.037,3.63-6.889,6.833-11.555c0.497-0.718,0.953-1.449,1.367-2.195
			c0.358-0.607,0.607-1.008,0.745-1.201c-1.104,0.69-2.098,1.036-2.981,1.036c-0.911,0-1.698-0.332-2.361-0.994
			c-0.718-0.69-1.367-1.035-1.946-1.035C249.025,61.771,248.307,62.462,247.782,63.842z"/>
		<path d="M296.004,83.431h1.988c-1.298,2.679-2.989,5.053-5.073,7.124c-2.085,2.07-4.094,3.106-6.026,3.106
			c-1.298,0-2.437-0.463-3.417-1.387c-0.98-0.925-1.47-2.285-1.47-4.08c0-1.463,0.772-4.266,2.319-8.407l4.763-12.631
			c1.104-2.954,1.657-4.749,1.657-5.384c0-0.552-0.131-0.966-0.394-1.243c-0.263-0.275-0.656-0.414-1.18-0.414
			c-1.077,0-2.354,0.835-3.831,2.505c-1.477,1.671-2.52,3.183-3.126,4.535h-1.988c1.518-3.009,3.251-5.384,5.197-7.124
			c1.946-1.739,3.762-2.609,5.446-2.609c1.297,0,2.361,0.442,3.189,1.325c0.828,0.884,1.243,2.043,1.243,3.479
			c0,1.463-0.732,4.141-2.195,8.034l-3.976,10.768c-1.464,3.893-2.195,6.336-2.195,7.33c0,0.801,0.158,1.402,0.476,1.802
			c0.317,0.4,0.78,0.601,1.387,0.601C290.841,90.761,293.244,88.318,296.004,83.431z M292.94,39.159
			c0-0.994,0.352-1.843,1.056-2.547s1.553-1.056,2.547-1.056s1.843,0.352,2.547,1.056s1.056,1.553,1.056,2.547
			c0,0.994-0.352,1.85-1.056,2.568c-0.704,0.718-1.553,1.077-2.547,1.077c-1.022,0-1.878-0.366-2.568-1.098
			C293.285,40.975,292.94,40.126,292.94,39.159z"/>
		<path d="M335.53,84.715h2.112c-1.656,2.981-3.348,5.218-5.073,6.709c-1.726,1.491-3.485,2.236-5.28,2.236
			c-1.242,0-2.312-0.38-3.209-1.139c-0.897-0.759-1.347-1.884-1.347-3.375c0-1.243,0.635-3.7,1.905-7.372l4.432-12.631
			c1.187-3.451,1.78-5.688,1.78-6.709c0-0.911-0.2-1.587-0.601-2.029c-0.4-0.441-1.015-0.663-1.843-0.663
			c-2.099,0-4.839,2.464-8.221,7.392s-6.288,11.382-8.718,19.361l-2.029,6.626h-5.052l7.289-23.523
			c1.326-4.334,1.988-6.819,1.988-7.455c0-0.469-0.083-0.814-0.248-1.035c-0.166-0.221-0.429-0.332-0.787-0.332
			c-1.63,0-3.562,2.016-5.798,6.046h-1.905c3.451-6.267,6.723-9.401,9.815-9.401c1.076,0,1.884,0.325,2.423,0.973
			c0.538,0.649,0.807,1.636,0.807,2.961c0,2.375-0.925,6.047-2.774,11.016c4.997-9.966,9.856-14.95,14.578-14.95
			c1.518,0,2.843,0.504,3.976,1.512c1.132,1.008,1.698,2.478,1.698,4.411c0,1.242-0.566,3.562-1.698,6.958l-4.432,13.211
			c-1.188,3.562-1.78,5.549-1.78,5.963c0,0.525,0.131,0.918,0.394,1.181c0.262,0.263,0.642,0.393,1.139,0.393
			c0.938,0,1.946-0.531,3.023-1.594C333.169,88.394,334.315,86.813,335.53,84.715z"/>
		<path d="M353.48,82.561c-1.796-0.994-3.142-2.284-4.038-3.872c-0.897-1.587-1.346-3.485-1.346-5.694
			c0-4.031,1.435-7.627,4.307-10.789c2.871-3.161,6.115-4.742,9.732-4.742c1.132,0,2.188,0.18,3.168,0.538
			c0.979,0.359,1.87,0.911,2.671,1.657c1.85-1.518,3.382-2.278,4.598-2.278c0.993,0,1.808,0.284,2.443,0.849
			c0.635,0.566,0.952,1.277,0.952,2.133c0,1.325-0.636,1.988-1.905,1.988c-0.718,0-1.422-0.469-2.112-1.408
			c-0.441-0.607-0.884-0.911-1.325-0.911c-0.47,0-0.952,0.346-1.449,1.036c1.104,1.822,1.656,3.99,1.656,6.502
			c0,4.777-1.394,8.545-4.183,11.306c-2.815,2.761-6.239,4.404-10.271,4.928c-5.991,0.773-8.986,2.375-8.986,4.804
			c0,0.773,0.345,1.408,1.035,1.905c0.689,0.497,2.139,0.98,4.349,1.449c3.837,0.855,6.971,1.629,9.4,2.319
			c2.43,0.69,4.23,1.705,5.404,3.044c1.174,1.339,1.761,2.92,1.761,4.742c0,2.816-1.437,5.287-4.308,7.414
			c-2.871,2.125-6.957,3.188-12.258,3.188c-4.998,0-8.891-0.814-11.679-2.443c-2.789-1.629-4.184-3.659-4.184-6.088
			c0-1.795,0.677-3.307,2.029-4.535c1.354-1.229,2.513-1.843,3.479-1.843c0.966,0,1.449,0.358,1.449,1.077
			c0,0.386-0.331,0.925-0.994,1.615c-1.132,1.214-1.698,2.402-1.698,3.562c0,1.794,0.911,3.382,2.733,4.763
			c1.822,1.38,4.611,2.07,8.366,2.07c4.03,0,7.088-0.69,9.173-2.07c2.084-1.381,3.127-2.996,3.127-4.846
			c0-1.464-0.732-2.65-2.195-3.562c-1.464-0.911-4.638-1.933-9.525-3.064c-4.252-0.994-6.889-2.029-7.909-3.106
			c-1.05-1.049-1.574-2.195-1.574-3.437c0-1.74,0.883-3.389,2.65-4.949C347.792,84.252,350.277,83.169,353.48,82.561z
			 M352.61,76.722c0,1.546,0.435,2.789,1.305,3.728c0.869,0.939,1.953,1.408,3.251,1.408c1.518,0,2.878-0.607,4.079-1.822
			c1.201-1.214,2.374-3.464,3.521-6.75c1.146-3.285,1.719-6.088,1.719-8.407c0-1.905-0.339-3.334-1.015-4.287
			c-0.677-0.952-1.691-1.429-3.044-1.429c-2.43,0-4.674,2.009-6.73,6.026S352.61,73.05,352.61,76.722z"/>
		<path d="M454.231,87.862l0.911,1.946c-3.064,2.319-6.198,3.479-9.401,3.479c-3.23,0-5.646-0.966-7.247-2.899
			c-1.602-1.932-2.402-5.024-2.402-9.276l0.042-3.396c0-3.837-0.332-6.557-0.994-8.159c-0.663-1.601-1.588-2.678-2.775-3.23
			c-1.187-0.552-3.092-0.828-5.715-0.828h-2.07l-4.97,16.234c-0.828,2.706-1.242,4.335-1.242,4.887c0,1.464,0.6,2.492,1.801,3.085
			c1.201,0.594,2.52,0.89,3.955,0.89h1.16l-0.58,1.905h-22.736l0.58-1.905h0.911c1.711,0,3.161-0.311,4.349-0.932
			c1.187-0.621,1.994-1.339,2.422-2.153c0.428-0.814,1.057-2.602,1.885-5.363l10.851-35.74c0.828-2.761,1.242-4.5,1.242-5.218
			c0-0.966-0.414-1.698-1.242-2.195s-2.443-0.746-4.846-0.746l0.58-1.905H433.4c4.085,0,7.144,0.104,9.173,0.311
			s4.106,0.884,6.232,2.029c2.126,1.146,3.762,2.644,4.908,4.493c1.146,1.85,1.719,3.921,1.719,6.212
			c0,4.307-1.761,7.896-5.28,10.768c-3.521,2.872-9.118,4.417-16.794,4.638c4.031,1.464,6.834,3.465,8.407,6.005
			c1.574,2.541,2.457,6.075,2.65,10.602c0.138,3.452,0.497,5.771,1.077,6.958c0.579,1.188,1.684,1.781,3.312,1.781
			C450.213,90.14,452.022,89.381,454.231,87.862z M425.158,63.718h1.657c7.067,0,12.354-1.353,15.861-4.059
			c3.506-2.706,5.26-6.488,5.26-11.348c0-3.423-1.07-5.984-3.21-7.682c-2.14-1.698-5.35-2.547-9.629-2.547
			c-0.662,0-1.381,0.028-2.153,0.083L425.158,63.718z"/>
		<path d="M462.945,81.608c0-3.313,0.772-6.922,2.319-10.83c1.546-3.906,3.754-7.075,6.626-9.504
			c2.871-2.429,5.659-3.645,8.365-3.645c2.457,0,4.479,1.042,6.067,3.127c1.587,2.085,2.381,4.907,2.381,8.469
			c0,4.307-0.884,8.394-2.65,12.259c-1.767,3.866-3.982,6.827-6.646,8.883c-2.665,2.057-5.28,3.085-7.848,3.085
			c-2.292,0-4.301-0.884-6.026-2.65C463.807,89.036,462.945,85.971,462.945,81.608z M467.375,86.371c0,1.491,0.387,2.761,1.16,3.81
			c0.772,1.05,1.836,1.574,3.188,1.574c3.699,0,6.743-3.506,9.132-10.519c2.388-7.013,3.582-12.369,3.582-16.068
			c0-1.905-0.366-3.334-1.097-4.287c-0.732-0.953-1.83-1.429-3.293-1.429c-3.451,0-6.426,3.251-8.925,9.753
			S467.375,81.429,467.375,86.371z"/>
		<path d="M498.122,81.608c0-3.313,0.772-6.922,2.319-10.83c1.546-3.906,3.754-7.075,6.626-9.504
			c2.871-2.429,5.659-3.645,8.365-3.645c2.457,0,4.479,1.042,6.067,3.127c1.587,2.085,2.381,4.907,2.381,8.469
			c0,4.307-0.884,8.394-2.65,12.259c-1.767,3.866-3.982,6.827-6.646,8.883c-2.665,2.057-5.28,3.085-7.848,3.085
			c-2.292,0-4.301-0.884-6.026-2.65C498.984,89.036,498.122,85.971,498.122,81.608z M502.552,86.371c0,1.491,0.387,2.761,1.16,3.81
			c0.772,1.05,1.836,1.574,3.188,1.574c3.699,0,6.743-3.506,9.132-10.519c2.388-7.013,3.582-12.369,3.582-16.068
			c0-1.905-0.366-3.334-1.097-4.287c-0.732-0.953-1.83-1.429-3.293-1.429c-3.451,0-6.426,3.251-8.925,9.753
			S502.552,81.429,502.552,86.371z"/>
		<path d="M581.463,84.673h1.781c-1.188,2.567-2.728,4.708-4.618,6.419c-1.892,1.712-3.734,2.568-5.528,2.568
			c-1.188,0-2.244-0.428-3.168-1.284c-0.926-0.855-1.388-2.071-1.388-3.645c0-1.408,0.676-4.086,2.029-8.035l3.893-11.264
			c1.16-3.368,1.739-5.48,1.739-6.336c0-0.911-0.186-1.595-0.559-2.05s-0.932-0.683-1.678-0.683c-2.375,0-5.17,1.974-8.386,5.922
			c-3.217,3.948-6.564,11.679-10.043,23.191l-1.118,3.603h-4.929l6.751-22.198c1.159-3.865,1.739-6.474,1.739-7.827
			c0-0.828-0.159-1.45-0.477-1.864s-0.808-0.621-1.47-0.621c-1.934,0-4.542,2.036-7.827,6.108
			c-3.286,4.073-6.558,11.521-9.815,22.343l-1.242,4.059h-4.97l7.578-24.848c1.021-3.396,1.532-5.397,1.532-6.005
			c0-0.441-0.076-0.773-0.228-0.994c-0.152-0.221-0.394-0.332-0.725-0.332c-0.718,0-1.677,0.58-2.878,1.74s-2.396,2.816-3.583,4.97
			h-1.863c1.325-2.789,2.954-5.087,4.887-6.896c1.933-1.808,3.645-2.713,5.136-2.713c1.076,0,1.926,0.359,2.547,1.077
			c0.621,0.718,0.932,1.684,0.932,2.899c0,2.016-0.843,5.425-2.526,10.229c1.85-3.893,4.155-7.248,6.916-10.063
			c2.761-2.816,5.26-4.224,7.496-4.224c1.601,0,2.796,0.462,3.582,1.387c0.787,0.925,1.181,2.312,1.181,4.162
			c0,2.264-0.566,4.998-1.698,8.2c2.347-4.804,4.831-8.296,7.455-10.478c2.622-2.181,4.997-3.271,7.123-3.271
			c1.601,0,2.94,0.532,4.017,1.594c1.077,1.063,1.615,2.505,1.615,4.328c0,1.133-0.09,2.064-0.269,2.795
			c-0.18,0.732-0.85,2.837-2.009,6.316l-3.23,9.318c-1.325,3.783-1.987,6.116-1.987,6.999c0,0.608,0.13,1.07,0.393,1.388
			s0.643,0.476,1.14,0.476c0.966,0,2.015-0.539,3.147-1.615C578.993,88.442,580.193,86.827,581.463,84.673z"/>
	</g>
</g>
<g id="_x0D_2423_W._North_Ave">
	<g>
		<path d="M124.108,221.342l-1.392,4.59h-0.757v-0.269c0-0.651-0.146-1.059-0.439-1.221c-0.293-0.163-1.164-0.244-2.612-0.244
			h-12.256c0-0.846,0.102-1.444,0.305-1.795c0.203-0.35,0.826-0.996,1.868-1.94c7.682-7.031,12.431-11.976,14.246-14.831
			c1.814-2.857,2.722-5.44,2.722-7.752c0-1.465-0.484-2.723-1.453-3.771c-0.969-1.051-2.25-1.575-3.845-1.575
			c-1.514,0-2.804,0.452-3.87,1.354c-1.066,0.904-1.599,1.99-1.599,3.26c0,1.384,0.464,2.458,1.392,3.223
			c0.163,0.146,0.244,0.277,0.244,0.391c0,0.195-0.338,0.558-1.013,1.086c-0.676,0.529-1.184,0.794-1.526,0.794
			c-0.423,0-0.834-0.374-1.233-1.123c-0.399-0.748-0.598-1.636-0.598-2.661c0-1.937,0.834-3.678,2.502-5.225
			c1.668-1.546,3.853-2.319,6.555-2.319c2.62,0,4.594,0.668,5.92,2.002c1.326,1.335,1.99,2.995,1.99,4.98
			c0,2.312-0.757,4.496-2.271,6.556c-1.514,2.059-4.436,4.952-8.765,8.679c-3.109,2.67-6.039,5.273-8.789,7.812H124.108z"/>
		<path d="M147.213,213.139h-10.767l0.488-1.562l18.726-20.239h1.611l-6.152,20.239h1.587c0.765,0,1.286-0.089,1.562-0.269
			c0.276-0.179,0.675-0.699,1.196-1.562h1.001l-1.025,3.394h-4.81l-2.075,6.836c-0.358,1.156-0.537,1.872-0.537,2.148
			c0,0.277,0.122,0.509,0.366,0.696c0.244,0.187,0.936,0.28,2.075,0.28h0.928l-0.317,1.099h-10.522l0.317-1.099h0.513
			c1.432,0,2.299-0.126,2.6-0.378c0.301-0.253,0.712-1.233,1.233-2.942L147.213,213.139z M147.702,211.577l4.541-14.941
			l-13.794,14.941H147.702z"/>
		<path d="M179.108,221.342l-1.392,4.59h-0.757v-0.269c0-0.651-0.146-1.059-0.439-1.221c-0.293-0.163-1.164-0.244-2.612-0.244
			h-12.256c0-0.846,0.102-1.444,0.305-1.795c0.203-0.35,0.826-0.996,1.868-1.94c7.682-7.031,12.431-11.976,14.246-14.831
			c1.814-2.857,2.722-5.44,2.722-7.752c0-1.465-0.484-2.723-1.453-3.771c-0.969-1.051-2.25-1.575-3.845-1.575
			c-1.514,0-2.804,0.452-3.87,1.354c-1.066,0.904-1.599,1.99-1.599,3.26c0,1.384,0.464,2.458,1.392,3.223
			c0.163,0.146,0.244,0.277,0.244,0.391c0,0.195-0.338,0.558-1.013,1.086c-0.676,0.529-1.184,0.794-1.526,0.794
			c-0.423,0-0.834-0.374-1.233-1.123c-0.399-0.748-0.598-1.636-0.598-2.661c0-1.937,0.834-3.678,2.502-5.225
			c1.668-1.546,3.853-2.319,6.555-2.319c2.62,0,4.594,0.668,5.92,2.002c1.326,1.335,1.99,2.995,1.99,4.98
			c0,2.312-0.757,4.496-2.271,6.556c-1.514,2.059-4.436,4.952-8.765,8.679c-3.109,2.67-6.039,5.273-8.789,7.812H179.108z"/>
		<path d="M201.603,205.937c1.839,0,3.361,0.61,4.565,1.831c1.204,1.221,1.807,2.841,1.807,4.858c0,3.19-1.278,6.047-3.833,8.569
			c-2.556,2.523-5.51,3.784-8.862,3.784c-1.872,0-3.536-0.383-4.993-1.147c-1.457-0.765-2.185-1.676-2.185-2.734
			c0-1.139,0.513-1.709,1.538-1.709c0.83,0,1.57,0.644,2.222,1.929c0.862,1.742,2.075,2.612,3.638,2.612
			c1.514,0,2.979-0.565,4.395-1.696c1.416-1.132,2.563-2.86,3.442-5.188c0.879-2.327,1.318-4.288,1.318-5.884
			c0-1.253-0.317-2.283-0.952-3.088c-0.635-0.807-1.473-1.209-2.515-1.209c-0.993,0-2.23,0.595-3.711,1.782
			c-0.651,0.505-1.115,0.757-1.392,0.757c-0.488,0-0.732-0.22-0.732-0.659c0-0.309,0.317-0.663,0.952-1.062
			c0.635-0.399,2.181-1.258,4.639-2.576c4.785-2.571,7.178-5.428,7.178-8.569c0-1.48-0.493-2.547-1.477-3.198
			c-0.985-0.65-2.185-0.977-3.601-0.977c-1.677,0-2.946,0.484-3.809,1.453c-0.863,0.968-1.294,2.022-1.294,3.161
			c0,0.635,0.195,1.294,0.586,1.978c0.114,0.195,0.171,0.334,0.171,0.415c0,0.195-0.269,0.501-0.806,0.915
			c-0.537,0.416-0.928,0.623-1.172,0.623c-0.326,0-0.664-0.305-1.013-0.916c-0.35-0.609-0.525-1.33-0.525-2.16
			c0-1.888,0.81-3.442,2.429-4.663c1.619-1.221,3.723-1.831,6.311-1.831c2.344,0,4.191,0.484,5.542,1.453
			c1.351,0.968,2.026,2.209,2.026,3.723c0,1.352-0.513,2.661-1.538,3.931s-3.166,2.751-6.421,4.443
			C202.685,205.311,202.042,205.661,201.603,205.937z"/>
		<path d="M259.289,225.004h-1.538l0.684-27.295l-18.115,27.295h-1.465l1.44-28.54l0.098-1.636c0-0.977-0.261-1.651-0.781-2.026
			c-0.521-0.374-1.473-0.569-2.856-0.586l0.317-1.123h11.816l-0.317,1.123c-1.791,0.049-2.893,0.326-3.308,0.83
			c-0.415,0.505-0.671,1.742-0.769,3.711l-1.074,21.826l18.213-27.49h1.074l-0.684,27.49l12.793-19.946
			c1.204-1.871,1.807-3.149,1.807-3.833c0-1.48-1.172-2.344-3.516-2.588l0.317-1.123h9.985l-0.342,1.123
			c-1.318,0.082-2.441,0.558-3.369,1.428c-0.928,0.871-2.254,2.707-3.979,5.506L259.289,225.004z"/>
		<path d="M280.075,222.319c0-0.699,0.252-1.302,0.757-1.807c0.504-0.504,1.115-0.757,1.831-0.757c0.7,0,1.302,0.253,1.807,0.757
			c0.504,0.505,0.757,1.107,0.757,1.807c0,0.717-0.252,1.327-0.757,1.831c-0.505,0.504-1.107,0.757-1.807,0.757
			c-0.732,0-1.347-0.257-1.843-0.769C280.323,223.625,280.075,223.019,280.075,222.319z"/>
		<path d="M333.219,224.516h-1.146l-9.205-28.052l-2.93,12.012c-1.123,4.688-2.127,8.329-3.014,10.926
			c-0.889,2.596-1.934,4.439-3.139,5.529s-2.434,1.636-3.686,1.636c-1.205,0-2.205-0.338-3.004-1.013
			c-0.797-0.676-1.195-1.542-1.195-2.601c0-1.66,0.627-2.49,1.879-2.49c0.488,0,0.908,0.171,1.258,0.513s0.525,0.79,0.525,1.343
			c0,0.407-0.146,0.888-0.439,1.44c-0.164,0.326-0.244,0.586-0.244,0.781c0,0.309,0.113,0.545,0.342,0.708
			c0.227,0.162,0.561,0.244,1,0.244c1.498,0,2.857-0.961,4.078-2.881s2.791-6.885,4.711-14.893l2.49-10.425
			c0.455-1.839,0.684-2.848,0.684-3.027c0-0.537-0.26-1.005-0.781-1.404c-0.521-0.398-1.822-0.613-3.906-0.646l0.27-1.123h7.641
			l8.496,25.806l2.027-8.423c2.082-8.658,3.682-13.79,4.797-15.393c1.115-1.604,2.396-2.405,3.846-2.405
			c0.861,0,1.537,0.208,2.025,0.622c0.488,0.416,0.732,0.933,0.732,1.551c0,0.554-0.191,1.001-0.572,1.343
			c-0.383,0.342-0.818,0.513-1.307,0.513c-0.619,0-1.182-0.391-1.686-1.172c-0.277-0.455-0.602-0.684-0.977-0.684
			c-0.668,0-1.379,0.912-2.135,2.734c-0.758,1.823-2,6.323-3.725,13.501L333.219,224.516z"/>
		<path d="M344.874,217.778c0-1.953,0.455-4.081,1.367-6.384c0.912-2.304,2.213-4.171,3.906-5.604
			c1.693-1.432,3.336-2.148,4.932-2.148c1.449,0,2.641,0.614,3.578,1.844c0.936,1.229,1.402,2.893,1.402,4.992
			c0,2.539-0.521,4.948-1.562,7.227c-1.041,2.279-2.348,4.024-3.918,5.236c-1.57,1.213-3.113,1.819-4.627,1.819
			c-1.352,0-2.535-0.521-3.551-1.562C345.383,222.157,344.874,220.35,344.874,217.778z M347.487,220.585
			c0,0.879,0.227,1.628,0.684,2.246c0.455,0.619,1.082,0.928,1.879,0.928c2.182,0,3.977-2.066,5.385-6.201
			c1.406-4.134,2.111-7.291,2.111-9.473c0-1.123-0.217-1.965-0.646-2.527c-0.432-0.561-1.08-0.842-1.941-0.842
			c-2.035,0-3.789,1.916-5.262,5.75C348.223,214.298,347.487,217.672,347.487,220.585z"/>
		<path d="M366.247,210.112h-1.074c0.684-1.822,1.543-3.377,2.576-4.663c1.033-1.285,2.055-1.929,3.064-1.929
			c0.699,0,1.221,0.28,1.562,0.843c0.342,0.561,0.512,1.412,0.512,2.551c0,1.416-0.365,3.435-1.098,6.055
			c0.098-0.162,0.365-0.748,0.805-1.758c1.205-2.718,2.262-4.679,3.174-5.884c0.912-1.204,1.822-1.807,2.734-1.807
			c0.57,0,1.025,0.18,1.367,0.537c0.342,0.358,0.514,0.79,0.514,1.294c0,0.488-0.143,0.888-0.428,1.196
			c-0.285,0.31-0.623,0.464-1.014,0.464c-0.439,0-0.887-0.269-1.342-0.806c-0.18-0.211-0.359-0.317-0.537-0.317
			c-0.814,0-2.068,1.957-3.76,5.871c-1.693,3.915-3.061,7.598-4.102,11.048l-0.537,1.758h-2.93l3.881-12.939
			c0.732-2.474,1.1-4.15,1.1-5.029c0-0.472-0.061-0.821-0.184-1.05c-0.121-0.228-0.305-0.342-0.549-0.342
			c-0.537,0-1.209,0.578-2.014,1.733C367.163,208.094,366.588,209.152,366.247,210.112z"/>
		<path d="M394.772,204.204l-0.342,1.074h-3.662l-3.223,10.669c-1.074,3.5-1.611,5.534-1.611,6.104c0,0.391,0.086,0.688,0.256,0.891
			c0.172,0.204,0.418,0.306,0.744,0.306c0.586,0,1.352-0.553,2.295-1.66c0.943-1.106,1.791-2.498,2.539-4.175h1.074
			c-0.992,2.426-2.127,4.276-3.404,5.555c-1.279,1.277-2.447,1.916-3.504,1.916c-0.83,0-1.494-0.293-1.99-0.879
			s-0.744-1.326-0.744-2.222c0-0.765,0.504-2.799,1.514-6.104l3.148-10.4h-3.369l0.342-1.074h3.346l2.246-7.397h2.93l-2.246,7.397
			H394.772z"/>
		<path d="M398.59,224.565h-2.904l8.568-28.198c0.488-1.595,0.732-2.522,0.732-2.783c0-0.374-0.109-0.643-0.328-0.806
			c-0.221-0.162-0.762-0.244-1.625-0.244h-0.781l0.293-1.025c2.588-0.064,4.508-0.357,5.762-0.879h0.611l-5.543,18.213
			c2.93-3.548,5.6-5.322,8.008-5.322c1.09,0,1.904,0.229,2.441,0.684c0.537,0.456,0.807,1.147,0.807,2.075
			c0,0.732-0.48,2.475-1.441,5.225l-2.148,6.128c-0.83,2.393-1.244,3.776-1.244,4.15c0,0.407,0.08,0.717,0.244,0.928
			c0.162,0.212,0.406,0.317,0.732,0.317c0.586,0,1.244-0.35,1.977-1.05c0.732-0.699,1.359-1.57,1.881-2.612h1.195
			c-0.83,1.66-1.814,2.995-2.953,4.004c-1.141,1.009-2.223,1.514-3.248,1.514c-0.748,0-1.391-0.277-1.928-0.83
			s-0.807-1.285-0.807-2.197c0-0.977,0.455-2.71,1.367-5.2l2.076-5.64c0.959-2.588,1.439-4.215,1.439-4.883
			c0-0.406-0.109-0.712-0.328-0.916c-0.221-0.203-0.559-0.305-1.014-0.305c-0.732,0-1.596,0.297-2.588,0.891
			c-0.994,0.595-2.027,1.588-3.102,2.979c-1.074,1.393-1.859,2.698-2.355,3.919s-1.145,3.166-1.941,5.835L398.59,224.565z"/>
		<path d="M452.516,211.674h-9.473l-3.027,4.639c-0.994,1.53-1.596,2.507-1.807,2.93c-0.213,0.424-0.318,0.863-0.318,1.318
			c0,1.596,1.164,2.426,3.492,2.49l0.805,0.024l-0.342,1.123H430.25l0.342-1.123c1.596-0.13,2.922-0.655,3.979-1.574
			c1.059-0.92,2.572-2.86,4.541-5.823l16.846-25.171h1.709l-1.146,26.831l-0.146,2.979c0,1.074,0.312,1.791,0.939,2.148
			c0.627,0.358,1.648,0.562,3.064,0.61l-0.342,1.123h-12.988l0.342-1.123c1.725-0.032,2.893-0.281,3.504-0.744
			c0.609-0.465,0.971-1.018,1.086-1.66c0.113-0.644,0.211-1.859,0.293-3.65L452.516,211.674z M452.565,210.551l0.635-14.136
			l-9.424,14.136H452.565z"/>
		<path d="M467.297,207.304h-1.002c0.766-2.522,1.814-3.784,3.15-3.784c0.715,0,1.424,0.595,2.123,1.782
			c0.26,0.456,0.578,0.684,0.953,0.684c0.391,0,0.691-0.333,0.902-1.001c0.309-0.977,0.709-1.465,1.197-1.465
			c0.373,0,0.561,0.18,0.561,0.537c0,0.342-0.252,0.985-0.756,1.929c-1.953,3.646-3.301,6.466-4.041,8.459
			c-0.74,1.994-1.111,3.781-1.111,5.359c0,1.14,0.244,2.022,0.732,2.648c0.488,0.627,1.051,0.94,1.686,0.94
			c1.904,0,3.756-1.485,5.555-4.456c1.797-2.97,2.697-5.854,2.697-8.654c0-1.106-0.236-2.213-0.709-3.32
			c-0.293-0.684-0.439-1.277-0.439-1.782c0-1.106,0.416-1.66,1.246-1.66c0.488,0,0.887,0.285,1.195,0.854
			c0.309,0.57,0.465,1.343,0.465,2.319c0,2.165-0.473,4.821-1.416,7.972c-0.945,3.148-2.305,5.639-4.078,7.471
			c-1.773,1.83-3.629,2.746-5.566,2.746c-1.285,0-2.314-0.399-3.088-1.196s-1.16-1.904-1.16-3.32c0-1.465,0.398-3.092,1.197-4.883
			c0.797-1.79,2.139-4.061,4.027-6.812c0.293-0.423,0.562-0.854,0.807-1.294c0.211-0.357,0.357-0.594,0.439-0.708
			c-0.652,0.407-1.238,0.61-1.758,0.61c-0.537,0-1.002-0.195-1.393-0.586c-0.424-0.406-0.805-0.61-1.146-0.61
			C468.03,206.083,467.606,206.491,467.297,207.304z"/>
		<path d="M497.604,217.973h1.172c-2.068,4.606-4.721,6.909-7.959,6.909c-1.336,0-2.422-0.468-3.26-1.404
			c-0.838-0.936-1.258-2.2-1.258-3.796c0-2.018,0.541-4.297,1.625-6.836c1.082-2.539,2.619-4.728,4.613-6.567
			c1.994-1.839,3.73-2.759,5.213-2.759c0.91,0,1.602,0.289,2.074,0.866c0.473,0.578,0.709,1.299,0.709,2.161
			c0,1.758-0.879,3.446-2.637,5.065c-1.758,1.62-4.395,3.179-7.91,4.676c-0.457,1.416-0.684,2.759-0.684,4.028
			c0,1.042,0.203,1.823,0.609,2.344c0.406,0.521,1.01,0.781,1.807,0.781C493.95,223.442,495.911,221.62,497.604,217.973z
			 M490.352,215.043c2.1-0.943,3.988-2.246,5.664-3.906s2.516-3.165,2.516-4.517c0-0.618-0.127-1.078-0.379-1.379
			c-0.252-0.302-0.631-0.452-1.135-0.452c-0.977,0-2.129,0.948-3.455,2.845C492.237,209.53,491.167,212,490.352,215.043z"/>
	</g>
</g>
</svg>
