<svg xmlns="http://www.w3.org/2000/svg" xmlns:xlink="http://www.w3.org/1999/xlink" version="1.1" id="Layer_1" x="0px" y="0px" width="100px" height="100px" viewBox="0 0 100 100" enable-background="new 0 0 100 100" xml:space="preserve">
<polygon points="-68.347,31.975 -72.736,27.738 -80.326,36.188 -87.471,29.287 -92.131,34.475 -84.986,41.376 -92.577,49.826   -88.19,54.062 -80.599,45.614 -73.455,52.514 -68.793,47.327 -75.938,40.425 "/>
<path d="M-56.165,17.637l-45.732,4.949l-1.121,47.822l17.839,12.183l45.732-4.948l1.121-47.823L-56.165,17.637z M-71.799,60.354  c-0.064-0.596-0.13-1.203-0.173-1.816c4.935-0.165,8.888-1.23,11.649-3.059c-1.436,2.844-3.697,5.209-6.776,7.072  c-1.501,0.908-3.008,1.573-4.343,2.057l-0.297,0.033C-71.479,63.337-71.635,61.872-71.799,60.354z M-64.247,63.828  c1.688-1.205,3.397-2.774,4.833-4.796l-0.1,4.284L-64.247,63.828z M-99.668,24.728l41.163-4.455l-0.709,30.26  c-0.667,1.283-1.776,2.355-3.327,3.206c-2.607,1.428-6.342,2.182-10.8,2.182h-1.32v1.32c0,1.196,0.127,2.364,0.239,3.396  c0.199,1.844,0.372,3.447-0.244,4.319l-26.01,2.813L-99.668,24.728z"/>
<path d="M552.154,21.878c-0.991-0.992-1.386-2.403-1.525-3.612c-0.14,1.209-0.533,2.621-1.524,3.612  c-0.991,0.992-2.403,1.385-3.612,1.525l0,0c1.209,0.14,2.621,0.533,3.612,1.525c0.99,0.992,1.386,2.402,1.524,3.611  c0.14-1.209,0.534-2.62,1.525-3.611c0.991-0.991,2.399-1.385,3.607-1.525c0.001,0,0.002,0,0.004,0  C554.557,23.264,553.146,22.87,552.154,21.878z"/>
<g>
	<g>
		<path d="M186.771,30.66v-1.204c2.438,0,4.42-1.983,4.42-4.421s-1.982-4.421-4.42-4.421V19.41c3.101,0,5.625,2.523,5.625,5.625    C192.395,28.136,189.872,30.66,186.771,30.66z"/>
	</g>
	<g>
		<path d="M186.771,24.221v-1.204c2.438,0,4.42-1.983,4.42-4.421c0-2.438-1.982-4.421-4.42-4.421v-1.204    c3.101,0,5.625,2.523,5.625,5.625C192.395,21.697,189.872,24.221,186.771,24.221z"/>
	</g>
	<g>
		<path d="M186.797,24.221c-2.411,0-4.229-1.034-4.229-2.405s1.817-2.405,4.229-2.405v1.204c-1.847,0-3.025,0.712-3.025,1.202    c0,0.49,1.18,1.202,3.025,1.202V24.221z"/>
	</g>
	<g>
		<path d="M186.797,17.782c-2.411,0-4.229-1.034-4.229-2.405s1.817-2.405,4.229-2.405v1.204c-1.847,0-3.025,0.712-3.025,1.202    s1.18,1.202,3.025,1.202V17.782z"/>
	</g>
</g>
<path d="M193.688,58.105c-1.108-1.756-3.013-2.803-5.09-2.803c-1.138,0-2.248,0.322-3.213,0.932  c-4.488,2.838-9.685,4.338-15.025,4.338c-5.342,0-10.541-1.501-15.028-4.34c-0.964-0.609-2.075-0.932-3.212-0.932  c-2.078,0-3.98,1.049-5.092,2.803c-1.772,2.805-0.935,6.528,1.871,8.303c6.416,4.058,13.838,6.203,21.461,6.203  c7.621,0,15.041-2.145,21.457-6.201C194.622,64.634,195.461,60.91,193.688,58.105z M186.111,59.312  c0.509,1.144,0.774,2.386,0.774,3.653c0,1.036-0.18,2.054-0.521,3.015c-1.471,0.703-2.982,1.308-4.527,1.809  c0.254-0.898,0.387-1.833,0.387-2.781c0-1.211-0.214-2.4-0.625-3.521C183.152,60.887,184.663,60.163,186.111,59.312z M181.02,65.008  c0,1.104-0.203,2.188-0.592,3.205c-1.771,0.498-3.582,0.861-5.419,1.091c0.238-0.87,0.361-1.772,0.361-2.688  c0-1.15-0.194-2.281-0.565-3.353c1.93-0.275,3.825-0.736,5.663-1.365C180.831,62.888,181.02,63.938,181.02,65.008z M154.232,62.966  c0-1.2,0.244-2.375,0.701-3.467c1.459,0.832,2.977,1.542,4.541,2.125c-0.381,1.08-0.578,2.222-0.578,3.384  c0,0.996,0.146,1.977,0.426,2.917c-1.527-0.474-3.023-1.044-4.479-1.714C154.443,65.184,154.232,64.085,154.232,62.966z   M160.1,65.008c0-1.023,0.176-2.031,0.512-2.982c1.847,0.606,3.75,1.035,5.688,1.289c-0.361,1.056-0.549,2.17-0.549,3.303  c0,0.933,0.127,1.853,0.375,2.738c-1.822-0.207-3.62-0.549-5.383-1.021C160.322,67.283,160.1,66.157,160.1,65.008z M149.57,59.711  c0.556-0.878,1.508-1.402,2.549-1.402c0.566,0,1.122,0.162,1.604,0.467c0.055,0.035,0.109,0.065,0.166,0.101  c-0.563,1.282-0.857,2.672-0.857,4.09c0,0.854,0.105,1.698,0.313,2.515c-0.966-0.498-1.915-1.033-2.838-1.617  C149.104,62.977,148.686,61.114,149.57,59.711z M167.426,69.48c-0.309-0.918-0.473-1.883-0.473-2.864  c0-1.091,0.199-2.161,0.578-3.167c0.937,0.085,1.88,0.132,2.828,0.132c1.078,0,2.151-0.058,3.216-0.166  c0.387,1.015,0.591,2.099,0.591,3.201c0,0.969-0.16,1.921-0.461,2.827c-1.109,0.1-2.225,0.156-3.348,0.156  C169.377,69.6,168.398,69.557,167.426,69.48z M190.209,63.864c-0.777,0.491-1.57,0.95-2.377,1.38  c0.169-0.742,0.258-1.506,0.258-2.278c0-1.487-0.324-2.944-0.941-4.278c0.444-0.246,0.941-0.375,1.449-0.375  c1.041,0,1.992,0.522,2.547,1.4C192.031,61.115,191.611,62.979,190.209,63.864z"/>
<path d="M560.282,65.876v-9.187c0-1.967-1.709-3.391-4.201-4.32c0.205-1.419,0.309-2.86,0.309-4.301  c0-16.468-13.396-29.865-29.864-29.865S496.66,31.6,496.66,48.068c0,16.468,13.397,29.866,29.865,29.866  c2.689,0,5.338-0.355,7.899-1.058v2.536c0,3.895,6.701,5.667,12.93,5.667c6.227,0,12.929-1.772,12.929-5.667v-4.283  c0.71-1.414,1.094-2.99,1.094-4.625C561.376,68.866,560.992,67.291,560.282,65.876z M526.524,73.799  c-14.188,0-25.73-11.543-25.73-25.731s11.543-25.73,25.73-25.73s25.729,11.542,25.729,25.73c0,1.104-0.071,2.208-0.211,3.298  c-1.517-0.231-3.119-0.345-4.69-0.345c-1.435,0-2.894,0.096-4.289,0.289c0.179-0.98,0.27-1.979,0.27-2.983  c0-9.126-7.424-16.55-16.55-16.55s-16.55,7.424-16.55,16.55h3.136c0-7.397,6.017-13.415,13.414-13.415  c7.396,0,13.415,6.018,13.415,13.415c0,1.256-0.176,2.497-0.519,3.692c-3.053,0.903-5.256,2.438-5.256,4.67v2.662  c-2.246,1.564-4.869,2.39-7.642,2.39c-2.544,0-5.021-0.716-7.159-2.067l-1.675,2.65c2.641,1.67,5.695,2.553,8.834,2.553  c2.668,0,5.294-0.654,7.642-1.875v9.561C531.882,73.383,529.229,73.799,526.524,73.799z M557.147,62.208  c-1.058-0.601-2.422-0.36-3.2,0.621c-0.86,1.085-0.68,2.663,0.405,3.524c1.274,1.012,2.007,2.523,2.007,4.149  c0,1.624-0.731,3.136-2.005,4.147c-1.086,0.861-1.267,2.439-0.404,3.524c0.496,0.624,1.227,0.948,1.967,0.948  c0.422,0,0.846-0.107,1.23-0.325v0.607c-0.033,0.151-0.554,0.846-2.537,1.515c-1.953,0.66-4.53,1.023-7.258,1.023  c-2.727,0-5.304-0.363-7.257-1.023c-1.983-0.669-2.504-1.363-2.537-1.515V60.557c2.529,1.221,6.238,1.801,9.794,1.801  c3.557,0,7.266-0.58,9.795-1.801V62.208z M554.61,58.2c-1.953,0.659-4.53,1.022-7.258,1.022c-2.727,0-5.304-0.363-7.257-1.022  c-1.983-0.67-2.504-1.363-2.537-1.501v-0.003c0.033-0.153,0.554-0.847,2.537-1.518c1.953-0.659,4.53-1.021,7.257-1.021  c2.728,0,5.305,0.362,7.258,1.021c1.989,0.673,2.508,1.369,2.537,1.503C557.118,56.832,556.601,57.527,554.61,58.2z"/>
<path d="M542.968,69.299c-0.781-0.781-1.092-1.894-1.202-2.847c-0.109,0.953-0.42,2.065-1.202,2.847  c-0.78,0.782-1.894,1.092-2.847,1.202l0,0c0.953,0.11,2.065,0.42,2.847,1.203c0.782,0.78,1.093,1.894,1.202,2.846  c0.11-0.952,0.421-2.063,1.202-2.846s1.894-1.092,2.844-1.203c0.002,0,0.002,0,0.002,0  C544.861,70.393,543.749,70.081,542.968,69.299z"/>
<path d="M537.194,28.896c-0.781-0.782-1.092-1.894-1.201-2.847c-0.11,0.953-0.421,2.065-1.203,2.847  c-0.781,0.782-1.895,1.092-2.846,1.202l0,0c0.951,0.11,2.063,0.42,2.846,1.202c0.782,0.781,1.093,1.893,1.203,2.846  c0.109-0.953,0.42-2.065,1.201-2.846c0.78-0.781,1.893-1.091,2.844-1.202c0.002,0,0.002,0,0.003,0  C539.088,29.988,537.976,29.678,537.194,28.896z"/>
<path d="M547.832,75.388c-0.312-0.311-0.435-0.754-0.479-1.133c-0.044,0.379-0.166,0.822-0.479,1.133  c-0.312,0.312-0.754,0.436-1.134,0.479l0,0c0.38,0.044,0.821,0.167,1.134,0.479c0.312,0.312,0.435,0.754,0.479,1.133  c0.045-0.379,0.168-0.821,0.479-1.133c0.311-0.311,0.752-0.435,1.131-0.479c0.001,0,0.001,0,0.001,0  C548.586,75.823,548.144,75.699,547.832,75.388z"/>
<path d="M555.476,32.057c-0.312-0.312-0.436-0.754-0.479-1.133c-0.045,0.379-0.168,0.822-0.479,1.133  c-0.312,0.311-0.754,0.435-1.134,0.479h0.001c0.379,0.044,0.821,0.167,1.133,0.479c0.312,0.311,0.435,0.753,0.479,1.133  c0.043-0.379,0.167-0.822,0.479-1.133s0.752-0.435,1.131-0.479c0.002,0,0.003,0,0.003,0  C556.229,32.491,555.786,32.368,555.476,32.057z"/>
<g>
	<g>
		<path d="M148.621,44.985l-0.643-1.017c1.569-0.993,3.387-1.518,5.256-1.518s3.687,0.525,5.256,1.518l-0.643,1.017    c-1.378-0.871-2.973-1.33-4.613-1.33C151.593,43.655,149.998,44.115,148.621,44.985z"/>
	</g>
</g>
<g>
	<g>
		<path d="M182.869,44.985l-0.645-1.017c1.57-0.993,3.389-1.518,5.258-1.518s3.686,0.525,5.254,1.518l-0.643,1.017    c-1.377-0.871-2.972-1.33-4.611-1.33C185.841,43.655,184.246,44.115,182.869,44.985z"/>
	</g>
</g>
<g>
	<path d="M162.432,35.691c-1.759-1.112-3.693-1.888-5.715-2.303l0,0c-0.002-0.001-0.005-0.001-0.008-0.002   c-0.268-0.055-0.539-0.104-0.811-0.146c-0.021-0.003-0.043-0.008-0.066-0.011c-0.277-0.042-0.557-0.079-0.837-0.107   c-0.007-0.001-0.015-0.001-0.021-0.001c-0.252-0.026-0.507-0.044-0.762-0.059c-0.061-0.003-0.122-0.007-0.183-0.01   c-0.265-0.012-0.529-0.02-0.794-0.02c-0.266,0-0.53,0.008-0.795,0.02c-0.062,0.003-0.123,0.007-0.184,0.01   c-0.257,0.014-0.514,0.033-0.769,0.059c-0.005,0-0.009,0.001-0.013,0.001c-0.283,0.029-0.562,0.065-0.844,0.108   c-0.019,0.002-0.037,0.006-0.056,0.009c-2.319,0.36-4.543,1.188-6.542,2.451c-1.861,1.178-2.417,3.642-1.239,5.503   c0.759,1.2,2.052,1.858,3.375,1.858c0.729,0,1.466-0.2,2.128-0.618c0.725-0.458,1.508-0.81,2.323-1.049   c0.417-0.123,0.843-0.215,1.274-0.278c0.004,0,0.009-0.001,0.013-0.002c0.196-0.028,0.396-0.049,0.594-0.064   c0.022-0.002,0.045-0.006,0.067-0.008c0.22-0.015,0.44-0.023,0.664-0.023c0.223,0,0.443,0.008,0.664,0.023   c0.021,0.002,0.041,0.005,0.063,0.007c0.2,0.015,0.399,0.036,0.597,0.064c0.002,0,0.002,0,0.004,0   c0.436,0.063,0.864,0.156,1.285,0.28l0,0c0.814,0.239,1.596,0.59,2.32,1.047c0.661,0.418,1.398,0.618,2.128,0.618   c1.322,0,2.616-0.657,3.375-1.857C164.85,39.332,164.293,36.868,162.432,35.691z M146.691,39.892   c-0.16,0.1-0.334,0.152-0.521,0.152c-0.34,0-0.651-0.171-0.832-0.457c-0.188-0.298-0.161-0.591-0.128-0.739   c0.034-0.147,0.134-0.424,0.432-0.612c0.806-0.508,1.653-0.93,2.534-1.265c0,0.028-0.002,0.056-0.002,0.085   c0,0.664,0.13,1.298,0.363,1.879C147.898,39.2,147.281,39.519,146.691,39.892z M161.128,39.586   c-0.181,0.286-0.492,0.457-0.832,0.457c-0.185,0-0.36-0.051-0.521-0.152c-0.59-0.373-1.207-0.692-1.846-0.957   c0.231-0.582,0.361-1.215,0.361-1.879c0-0.029-0.001-0.057-0.002-0.085c0.88,0.334,1.729,0.756,2.533,1.265   c0.299,0.188,0.398,0.465,0.433,0.612C161.29,38.995,161.316,39.288,161.128,39.586z"/>
	<path d="M196.68,35.691c-1.759-1.112-3.693-1.888-5.715-2.303l0,0c-0.003-0.001-0.005-0.001-0.008-0.002   c-0.27-0.055-0.539-0.104-0.811-0.146c-0.022-0.003-0.045-0.008-0.066-0.011c-0.278-0.042-0.557-0.079-0.838-0.107   c-0.006-0.001-0.014-0.001-0.02-0.001c-0.254-0.026-0.508-0.044-0.763-0.059c-0.062-0.003-0.123-0.007-0.185-0.01   c-0.264-0.012-0.528-0.02-0.793-0.02c-0.267,0-0.531,0.008-0.795,0.02c-0.061,0.003-0.121,0.007-0.184,0.01   c-0.257,0.014-0.513,0.033-0.77,0.059c-0.004,0-0.008,0.001-0.012,0.001c-0.283,0.029-0.562,0.065-0.843,0.108   c-0.019,0.002-0.038,0.006-0.056,0.009c-2.319,0.36-4.543,1.188-6.541,2.451c-1.861,1.178-2.417,3.642-1.239,5.503   c0.759,1.2,2.054,1.858,3.375,1.858c0.729,0,1.467-0.2,2.128-0.618c0.725-0.458,1.506-0.81,2.322-1.049   c0.417-0.123,0.843-0.215,1.275-0.278c0.004,0,0.008-0.001,0.013-0.002c0.196-0.028,0.395-0.049,0.593-0.064   c0.023-0.002,0.045-0.006,0.066-0.008c0.222-0.015,0.442-0.023,0.666-0.023c0.222,0,0.442,0.008,0.664,0.023   c0.021,0.002,0.041,0.005,0.063,0.007c0.2,0.015,0.399,0.036,0.597,0.064c0.002,0,0.002,0,0.004,0   c0.436,0.063,0.864,0.156,1.285,0.28l0,0c0.815,0.239,1.598,0.59,2.321,1.047c0.661,0.418,1.399,0.618,2.128,0.618   c1.322,0,2.616-0.657,3.375-1.857C199.098,39.332,198.542,36.868,196.68,35.691z M180.938,39.892c-0.16,0.1-0.334,0.152-0.52,0.152   c-0.34,0-0.65-0.171-0.832-0.457c-0.188-0.298-0.161-0.591-0.127-0.739c0.033-0.147,0.133-0.424,0.432-0.612   c0.805-0.508,1.653-0.93,2.534-1.265c0,0.028-0.003,0.056-0.003,0.085c0,0.664,0.13,1.298,0.363,1.879   C182.146,39.2,181.527,39.519,180.938,39.892z M195.376,39.586c-0.181,0.286-0.491,0.457-0.832,0.457   c-0.187,0-0.36-0.051-0.521-0.152c-0.59-0.373-1.209-0.692-1.848-0.957c0.233-0.582,0.363-1.215,0.363-1.879   c0-0.029-0.001-0.057-0.002-0.085c0.881,0.334,1.73,0.756,2.534,1.265c0.299,0.188,0.399,0.465,0.433,0.612   C195.537,38.995,195.564,39.288,195.376,39.586z"/>
</g>
<path d="M312.147,60.003c-6.417-4.057-13.837-6.201-21.458-6.201c-7.625,0-15.045,2.146-21.461,6.203  c-2.805,1.774-3.644,5.499-1.871,8.304c1.109,1.754,3.014,2.801,5.092,2.801c1.137,0,2.248-0.321,3.212-0.932  c4.489-2.838,9.687-4.339,15.028-4.339c5.341,0,10.537,1.5,15.025,4.338c0.965,0.609,2.075,0.933,3.212,0.933l0,0  c2.079,0,3.981-1.049,5.092-2.803C315.791,65.5,314.952,61.775,312.147,60.003z M301.35,61.402c0,1.068-0.188,2.119-0.553,3.107  c-1.837-0.629-3.732-1.089-5.664-1.365c0.373-1.069,0.567-2.201,0.567-3.351c0-0.915-0.123-1.817-0.361-2.688  c1.835,0.229,3.646,0.595,5.419,1.092C301.146,59.214,301.35,60.298,301.35,61.402z M274.562,63.443  c0-1.119,0.211-2.217,0.609-3.245c1.456-0.668,2.952-1.24,4.479-1.714c-0.28,0.94-0.426,1.922-0.426,2.918  c0,1.162,0.198,2.304,0.578,3.384c-1.563,0.582-3.082,1.293-4.541,2.125C274.807,65.818,274.562,64.645,274.562,63.443z   M280.43,61.402c0-1.149,0.223-2.275,0.644-3.327c1.763-0.472,3.561-0.813,5.383-1.021c-0.248,0.887-0.375,1.807-0.375,2.739  c0,1.132,0.188,2.246,0.549,3.302c-1.937,0.252-3.841,0.684-5.688,1.29C280.605,63.434,280.43,62.427,280.43,61.402z   M272.449,68.102c-1.041,0-1.993-0.524-2.549-1.401c-0.887-1.402-0.467-3.265,0.936-4.151c0.924-0.584,1.872-1.12,2.838-1.617  c-0.208,0.815-0.314,1.659-0.314,2.512c0,1.419,0.295,2.81,0.857,4.092c-0.055,0.033-0.109,0.064-0.165,0.1  C273.57,67.939,273.016,68.102,272.449,68.102z M287.861,62.961c-0.379-1.006-0.578-2.076-0.578-3.167  c0-0.981,0.164-1.946,0.473-2.864c0.973-0.076,1.951-0.119,2.934-0.119c1.121,0,2.236,0.056,3.347,0.155  c0.301,0.906,0.461,1.859,0.461,2.828c0,1.103-0.204,2.187-0.591,3.201c-1.064-0.109-2.137-0.167-3.217-0.167  C289.741,62.829,288.798,62.876,287.861,62.961z M301.928,64.923c0.413-1.12,0.627-2.31,0.627-3.521  c0-0.948-0.133-1.883-0.388-2.781c1.545,0.5,3.058,1.105,4.526,1.808c0.343,0.962,0.522,1.979,0.522,3.015  c0,1.269-0.266,2.51-0.774,3.652C304.993,66.248,303.482,65.523,301.928,64.923z M311.475,66.698  c-0.555,0.877-1.507,1.401-2.548,1.401c-0.507,0-1.004-0.131-1.449-0.377c0.618-1.334,0.942-2.791,0.942-4.279  c0-0.771-0.088-1.535-0.258-2.277c0.807,0.43,1.6,0.889,2.377,1.38C311.942,63.434,312.361,65.295,311.475,66.698z"/>
<g>
	<g>
		<path d="M268.951,42.862l-0.645-1.019c1.57-0.992,3.389-1.518,5.258-1.518s3.686,0.525,5.254,1.518l-0.643,1.017    c-1.377-0.871-2.972-1.331-4.613-1.331C271.923,41.531,270.328,41.991,268.951,42.862z"/>
	</g>
</g>
<g>
	<g>
		<path d="M303.199,42.862l-0.645-1.019c1.57-0.992,3.387-1.518,5.257-1.518c1.868,0,3.687,0.525,5.256,1.518l-0.644,1.017    c-1.377-0.871-2.973-1.331-4.613-1.331C306.171,41.531,304.576,41.991,303.199,42.862z"/>
	</g>
</g>
<g>
	<path d="M282.762,33.568c-1.76-1.113-3.695-1.888-5.716-2.303l0,0c-0.001,0-0.003,0-0.005-0.001   c-0.27-0.055-0.539-0.103-0.811-0.146c-0.024-0.004-0.047-0.008-0.071-0.012c-0.276-0.042-0.556-0.078-0.834-0.107   c-0.009,0-0.019-0.001-0.026-0.002c-0.251-0.025-0.502-0.044-0.755-0.058c-0.063-0.004-0.125-0.007-0.187-0.01   c-0.265-0.012-0.528-0.021-0.793-0.021c-0.266,0-0.53,0.008-0.793,0.021c-0.062,0.002-0.125,0.006-0.187,0.01   c-0.255,0.014-0.509,0.033-0.763,0.059C271.816,31,271.811,31,271.804,31c-0.28,0.029-0.562,0.065-0.841,0.108   c-0.02,0.003-0.039,0.006-0.059,0.01c-2.318,0.36-4.543,1.188-6.54,2.451c-1.861,1.177-2.417,3.642-1.239,5.503   c0.759,1.2,2.052,1.856,3.375,1.856c0.729,0,1.466-0.2,2.128-0.618c0.724-0.458,1.506-0.809,2.321-1.048   c0.417-0.123,0.844-0.215,1.275-0.279c0.004,0,0.008-0.001,0.014-0.002c0.195-0.028,0.392-0.048,0.589-0.063   c0.024-0.002,0.048-0.006,0.071-0.008c0.221-0.016,0.441-0.024,0.664-0.024c0.224,0,0.443,0.008,0.664,0.024   c0.023,0.001,0.047,0.005,0.07,0.007c0.198,0.016,0.395,0.036,0.591,0.064c0.003,0,0.005,0.001,0.007,0.001   c0.436,0.063,0.863,0.156,1.282,0.28l0,0c0.815,0.239,1.597,0.59,2.321,1.047c0.661,0.418,1.398,0.618,2.128,0.618   c1.322,0,2.616-0.657,3.375-1.858C285.179,37.209,284.624,34.745,282.762,33.568z M267.021,37.768   c-0.16,0.101-0.334,0.152-0.521,0.152c-0.34,0-0.651-0.171-0.832-0.457c-0.289-0.457-0.151-1.063,0.306-1.352   c0.803-0.508,1.652-0.93,2.533-1.265c-0.001,0.028-0.003,0.057-0.003,0.085c0,0.665,0.13,1.298,0.363,1.879   C268.229,37.076,267.611,37.396,267.021,37.768z M281.458,37.463c-0.181,0.286-0.492,0.457-0.832,0.457   c-0.185,0-0.36-0.051-0.521-0.152c-0.588-0.373-1.207-0.692-1.847-0.957c0.232-0.581,0.362-1.214,0.362-1.879   c0-0.028-0.001-0.057-0.002-0.085c0.88,0.334,1.729,0.756,2.533,1.265C281.609,36.4,281.747,37.006,281.458,37.463z"/>
	<path d="M317.01,33.568c-1.759-1.113-3.693-1.888-5.715-2.303l0,0c-0.002,0-0.004,0-0.005-0.001   c-0.27-0.055-0.539-0.103-0.811-0.146c-0.024-0.004-0.048-0.008-0.071-0.012c-0.276-0.042-0.556-0.078-0.833-0.107   c-0.009,0-0.019-0.001-0.027-0.002c-0.25-0.025-0.502-0.044-0.754-0.058c-0.062-0.004-0.125-0.007-0.188-0.01   c-0.264-0.012-0.527-0.021-0.793-0.021c-0.265,0-0.529,0.008-0.793,0.021c-0.062,0.002-0.124,0.006-0.186,0.01   c-0.255,0.014-0.51,0.033-0.763,0.059C306.064,31,306.059,31,306.052,31c-0.28,0.029-0.562,0.065-0.841,0.108   c-0.02,0.003-0.039,0.006-0.059,0.01c-2.318,0.36-4.543,1.188-6.541,2.451c-1.86,1.177-2.416,3.642-1.238,5.503   c0.759,1.2,2.053,1.856,3.375,1.856c0.729,0,1.467-0.2,2.128-0.618c0.724-0.458,1.506-0.809,2.321-1.048   c0.417-0.123,0.844-0.215,1.275-0.279c0.004,0,0.01-0.001,0.014-0.002c0.195-0.028,0.392-0.048,0.589-0.063   c0.023-0.002,0.048-0.006,0.072-0.008c0.22-0.016,0.441-0.024,0.664-0.024c0.222,0,0.442,0.008,0.663,0.024   c0.023,0.001,0.046,0.005,0.07,0.007c0.198,0.016,0.396,0.036,0.591,0.064c0.002,0,0.004,0.001,0.007,0.001   c0.435,0.063,0.862,0.156,1.281,0.28l0,0c0.816,0.239,1.597,0.59,2.321,1.047c0.662,0.418,1.398,0.618,2.127,0.618   c1.323,0,2.617-0.657,3.375-1.858C319.427,37.209,318.872,34.745,317.01,33.568z M301.27,37.768   c-0.16,0.101-0.334,0.152-0.521,0.152c-0.34,0-0.651-0.171-0.832-0.457c-0.289-0.457-0.151-1.063,0.306-1.352   c0.803-0.508,1.652-0.93,2.533-1.265c-0.001,0.028-0.002,0.057-0.002,0.085c0,0.665,0.13,1.298,0.363,1.879   C302.477,37.076,301.857,37.396,301.27,37.768z M315.706,37.463c-0.181,0.286-0.491,0.457-0.832,0.457   c-0.186,0-0.36-0.051-0.52-0.152c-0.591-0.373-1.209-0.692-1.848-0.957c0.233-0.581,0.362-1.214,0.362-1.879   c0-0.028-0.001-0.057-0.002-0.085c0.881,0.334,1.729,0.756,2.534,1.265C315.858,36.4,315.995,37.006,315.706,37.463z"/>
</g>
<path d="M313.587,21.014V19.81h-2.661v-2.661h-1.204v2.661h-3.96v-2.661h-1.205v2.661h-2.66v1.204h2.66v3.96h-2.66v1.204h2.66v2.661  h1.205v-2.661h3.96v2.661h1.204v-2.661h2.661v-1.204h-2.661v-3.96H313.587z M309.722,24.975h-3.96v-3.96h3.96V24.975z"/>
<g>
	<path d="M82.609,57.005c3.187-6.691-1.125-9.549-5.83-9.304c-3.459,0.18-5.344,1.909-6.088,2.792   c-1.877-2.716-5.01-4.497-8.562-4.497c-0.483,0-0.958,0.036-1.423,0.1l0.001-0.002c0,0-9.106,0.264-11.633-1.314   c-0.425-0.267-0.792-0.522-1.111-0.769c-0.456-1.169-1.146-2.231-2.018-3.137c0.078-1.815,0.503-6.364,2.793-7.352   c1.24-0.536,3.179-0.037,4.067,0.244c0.148,0.058,0.301,0.11,0.454,0.156c0.011,0.004,0.019,0.006,0.019,0.006v-0.001   c0.759,0.224,1.564,0.302,2.377,0.213l6.642,1.912l0,0c0.589,0.302,1.295,0.374,1.97,0.138c1.308-0.457,1.998-1.886,1.541-3.194   c-0.291-0.835-0.979-1.417-1.778-1.61l0,0l-3.192-5.323l2.026-1.929l-0.005-0.004c0.05-0.042,0.092-0.093,0.123-0.154   c0.125-0.241,0.027-0.536-0.213-0.659c-0.125-0.064-0.265-0.068-0.388-0.023l-0.001-0.003l-2.201,0.712l5.633-5.395   c0.151-0.145,0.174-0.378,0.055-0.55l-0.143-0.202c-0.119-0.169-0.343-0.229-0.529-0.139l-8.299,3.938l0.527-1.498l-0.002-0.001   c0.025-0.059,0.04-0.124,0.04-0.192c0-0.271-0.219-0.491-0.489-0.491c-0.143,0-0.268,0.06-0.357,0.155l-0.002-0.001l-2.438,2.437   c-0.396,0.054-0.792,0.147-1.184,0.285c-0.295,0.103-0.577,0.226-0.845,0.368c-0.782,0.013-5.527,0.215-10.647,3.214   c-6.55,3.837-9.001,11.191-9.661,13.662c-3.988-4.409-9.751-7.184-16.15-7.184v4.213c5.79,0,10.934,2.817,14.136,7.152   c-0.374,1.094-0.573,2.286-0.573,3.535c0,0.458,0.028,0.907,0.081,1.345c-3.93-3.54-9.052-5.543-14.545-5.543v4.212   c6.213,0,11.838,3.174,15.048,8.489l0.005-0.002h-0.001c1.153,1.131,2.588,1.799,4.076,2.01c0.81,0.113,1.635,0.091,2.438-0.066   l-0.027,0.02c0,0,2.99-1.136,9.553,3.91c1.52,1.168,3.891,1.844,6.488,2.028c0.98,6.479,6.244,11.008,12.393,11.008   c0.4,0,0.805-0.021,1.211-0.061c2.363,3.522,3.443,7.909,2.758,12.44l4.166,0.631c0.817-5.407-0.41-10.879-3.455-15.409   c-1.504-2.238-3.389-4.152-5.547-5.671c0.42-0.072,0.832-0.168,1.233-0.288c2.226,1.761,5.022,2.792,7.991,2.792   c0.386,0,0.775-0.021,1.167-0.055c2.663,3.618,3.95,8.25,3.226,13.032l4.165,0.631c0.871-5.757-0.549-11.504-3.999-16.185   c-1.699-2.307-3.793-4.217-6.168-5.667c0.658-1.365,1.027-2.896,1.027-4.513c0-1.11-0.176-2.18-0.498-3.183   c2.794-0.854,5.585,0.655,4.281,3.583c-1.101,2.473-0.907,6.165,2.701,7.846c3.609,1.681,6.039-1.707,6.039-1.707   C82.113,62.877,80.698,61.018,82.609,57.005z"/>
	<path d="M77.87,18.932c0.991,0.993,1.385,2.403,1.524,3.612c0.142-1.209,0.535-2.62,1.526-3.612   c0.991-0.991,2.399-1.384,3.609-1.525c0,0,0.001,0,0.002,0c-1.209-0.14-2.62-0.534-3.612-1.525   c-0.992-0.992-1.385-2.404-1.525-3.613c-0.14,1.209-0.533,2.621-1.524,3.613c-0.992,0.992-2.403,1.385-3.613,1.525l0,0   C75.467,17.546,76.878,17.94,77.87,18.932z"/>
	<path d="M70.37,27.741c0.78,0.781,1.092,1.893,1.202,2.846c0.111-0.953,0.421-2.065,1.201-2.846   c0.781-0.782,1.893-1.092,2.845-1.202c0.001,0,0.002,0,0.002,0c-0.953-0.11-2.063-0.42-2.847-1.202   c-0.781-0.781-1.092-1.894-1.201-2.847c-0.11,0.953-0.422,2.065-1.202,2.847c-0.782,0.782-1.894,1.092-2.847,1.203l0,0   C68.477,26.648,69.588,26.958,70.37,27.741z"/>
	<path d="M83.445,25.457c-0.045,0.38-0.168,0.823-0.479,1.134c-0.312,0.311-0.754,0.434-1.134,0.479l0,0   c0.379,0.044,0.822,0.167,1.134,0.479c0.312,0.311,0.435,0.754,0.479,1.133c0.043-0.379,0.166-0.822,0.479-1.133   c0.311-0.311,0.752-0.434,1.133-0.479l0,0c-0.38-0.044-0.822-0.167-1.133-0.479C83.611,26.279,83.488,25.836,83.445,25.457z"/>
</g>
<path d="M798.815,56.117c-1.166-1.141-3.211-2.07-3.528-2.627c-0.318-0.559-0.663-0.956,0.133-2.335  c0.796-1.38,2.335-4.193,1.194-7.59c-1.142-3.397-2.176-4.937-6.104-6.316c-3.924-1.379-7.881,1.327-11.836,1.3  c-3.953-0.027-6.952-1.3-7.324-2.176c-0.37-0.875,0.283-2.052,0.283-2.052s0.32-0.304,0.761,0.026  c0.29,0.218,0.494,0.812,0.975,1.132c1.102,0.734,1.697,1.132,2.361,1.238c0.664,0.106,1.246-0.265,1.246-0.265  s1.108,0.819,2.256,0.61c1.17-0.212,2.866-1.168,3.054-2.972c0,0,0.132-1.141-0.505-2.787c-0.637-1.646-0.291-2.866,0.77-5.095  c0.965-2.024,1.158-4.222,0.293-6.119c0.023-0.301,0.109-0.69,0.347-1.135c0.547-1.044,0.036-1.717-0.354-2.053  c-0.391-0.336-1.576-0.425-1.576-0.425s-0.213-0.619-0.672-0.743c-0.461-0.124-1.147-0.338-1.645-0.213c0,0,0,0.001-0.002,0.001  c-1.312-0.841-3.015-1.451-5.254-1.495c-5.388-0.106-8.731,2.919-11.066,5.201c-2.336,2.283-4.989,8.851-5.281,9.713  c-0.26,0.766-1.434,4.007-1.486,7.51c-0.052,3.503,0.318,5.732,0.318,5.732s-1.645,0.504-3.078,2.389  c-1.434,1.885-6.023,6.37-8.199,7.562c-2.178,1.195-2.336,2.734-2.336,2.734s-1.698,1.38-2.257,1.751  c-0.557,0.372,0.319,1.193,0.663,1.513c0,0,3.875,2.681,7.379,2.681c0,0,0.875,0.053,0.93-0.93c0.053-0.982,0.053-0.982,0.053-0.982  s0.876-0.344,1.672-1.326s2.415-3.875,3.317-4.83c0.901-0.956,1.832-1.566,1.832-1.566s-0.271,2.939-3,5.785  c-1.83,1.911-2.071,4.645-2.071,4.645s-0.847,3.929-2.679,6.582c0,0-3.238,5.361-3.689,6.184c-0.451,0.823-0.769,1.805-0.504,2.945  c0,0-1.168,1.672-1.486,2.521c-0.317,0.85-0.424,1.672,0.663,1.964c1.089,0.292,5.31,0.212,6.795-0.133s2.389-0.557,2.469-1.194  c0.08-0.637,0.053-1.433,0.053-1.433s0.504-0.424,0.876-1.778c0.372-1.354,0.663-3.875,1.646-6.635  c0.672-1.89,1.672-3.768,3.146-5.432c0,0,1.302-1.602,2.17-3.937c0.869-2.335,2.992-3.37,4.237-3.636  c1.248-0.266,6.529,0.186,10.404-0.529c3.874-0.718,7.297-0.877,8.041-0.611c0.743,0.266,4.512,2.389,5.281,3.449  c0.769,1.062,0.495,1.529,0.291,1.938c-0.424,0.849-3.582,3.742-6.555,5.573c0,0-3.98,2.84-4.539,4.246  c-0.558,1.406-0.396,1.699-0.396,1.699s-1.008,1.433-1.168,2.521c-0.159,1.088-0.479,1.911,0.689,2.203  c1.169,0.292,5.627,0.664,6.688,0.53c1.062-0.133,1.699-0.504,1.699-1.379c0-0.877,0-0.877,0-0.877s0.769-0.397,1.459-1.672  c0.691-1.272,1.354-2.865,1.354-2.865s-0.741,3.556-1.484,4.908c0,0-0.484,2.381,0.425,3.313c0,0-0.16,1.358,0.053,1.649  c0.212,0.293,0.982,1.036,2.918,1.036c1.646,0,2.31-0.851,2.654-1.142c0.533-0.445,3.583-2.627,3.822-3.186c0,0,0.396-0.769,0-1.564  c-0.396-0.797,0.053-0.903-0.027-1.407s-0.955-2.866-0.795-4.458c0.158-1.592,0.928-4.538,1.671-6.476s2.266-5.6,2.266-6.21  C799.516,58.318,799.984,57.258,798.815,56.117z M787.927,43.758c-0.513,0.566-2.843,2.048-3.715,1.451  c-0.956-0.654-1.124-1.97-0.668-3.37c0.412-1.261,1.699-1.459,2.296-1.088c0.37,0.23,0.459,0.92,0.459,0.92  c0.921-0.301,1.428-0.224,1.787,0.212C788.467,42.343,788.44,43.192,787.927,43.758z"/>
<path d="M913.756,40.539c-2.647,0-5.133,0.688-7.289,1.892l-3.408-4.619l2.688-8.743l4.752-0.965c0,0,0.903-0.407,0-1.309  c-0.9-0.902-3.396-0.301-5.802-0.301c-2.407,0-2.761-0.76-4.777-0.76s-2.513,1.521-2.513,1.521c1.981,0.566,1.629-0.283,3.806,0.354  c0.65,0.19,1.134,0.435,1.492,0.684l-2.438,7.931l-21.908-3.29l0.973-2.232c0.127-0.147,0.23-0.317,0.302-0.51  c0.312-0.853-0.127-1.797-0.979-2.108l-6.203-2.267l-5.808,3.048l-0.224,0.574c-0.079,0.204-0.754,2.052-0.008,4.045  c0.709,1.887,3.176,3.505,3.662,3.811c0.271,0.17,0.571,0.251,0.871,0.251c0.545,0,1.08-0.272,1.393-0.77  c0.482-0.768,0.251-1.782-0.516-2.266c-0.958-0.604-2.123-1.624-2.332-2.182c-0.159-0.424-0.156-0.861-0.117-1.185l3.315-1.74  l3.269,1.194l-4.742,10.881c-1.627-0.605-3.389-0.938-5.227-0.938c-8.277,0-14.988,6.71-14.988,14.987  c0,8.279,6.711,14.988,14.988,14.988c8.276,0,14.987-6.709,14.987-14.988c0-5.318-2.774-9.987-6.951-12.647l1.404-3.224  l18.338,20.318h0.002c0.291,0.322,0.709,0.519,1.16,0.519c0.092,0,0.184-0.009,0.275-0.024l4.166-0.734  c1.818,6.229,7.568,10.783,14.387,10.783c8.277,0,14.988-6.711,14.988-14.988C928.744,47.249,922.033,40.539,913.756,40.539z   M877.687,55.525c0,6.453-5.248,11.701-11.699,11.701c-6.452,0-11.701-5.248-11.701-11.701c0-6.451,5.249-11.7,11.701-11.7  c1.369,0,2.687,0.239,3.908,0.674l-4.284,9.834c-0.348,0.793,0.017,1.718,0.812,2.063c0.203,0.088,0.415,0.131,0.625,0.131  c0.605,0,1.182-0.353,1.438-0.942l4.202-9.644C875.707,48.061,877.687,51.566,877.687,55.525z M877.06,35.908l22.275,3.345  l-5.092,16.569l-17.44-19.324L877.06,35.908z M897.183,56.934l4.729-15.394l1.99,2.697c-3.146,2.748-5.137,6.785-5.137,11.289  c0,0.377,0.02,0.75,0.046,1.121L897.183,56.934z M902.053,55.525c0-3.413,1.472-6.489,3.812-8.63l5.553,7.526l-9.348,1.65  C902.06,55.891,902.053,55.709,902.053,55.525z M913.756,67.227c-5.187,0-9.592-3.391-11.123-8.07l11.818-2.085  c0.534-0.095,0.981-0.458,1.184-0.962s0.128-1.076-0.192-1.514l-7-9.488c1.596-0.817,3.399-1.282,5.313-1.282  c6.451,0,11.699,5.249,11.699,11.701C925.455,61.979,920.207,67.227,913.756,67.227z"/>
<g>
	<g>
		<polygon points="405.494,28.201 380.17,28.201 381.545,25.066 406.898,25.066   "/>
	</g>
	<g>
		<polygon points="397.879,39.357 372.526,39.357 373.954,36.222 399.256,36.222   "/>
	</g>
	<g>
		<polygon points="394.057,50.512 368.705,50.512 370.391,47.377 395.434,47.377   "/>
	</g>
	<g>
		<circle cx="424.894" cy="26.634" r="7.384"/>
		<path d="M417.6,33.49c1.768,0,3.204,1.438,3.204,3.204s-1.438,3.203-3.204,3.203h-7.571v7.27c0,1.767-1.438,3.204-3.206,3.204    s-3.204-1.437-3.204-3.206V36.694c0-1.767,1.438-3.204,3.204-3.204H417.6z"/>
		<g>
			<path d="M436.166,70.134l-5.334-9.761c-0.531-0.969-1.397-1.711-2.438-2.083l-10.518-3.774l1.131-2.578     c0.582,0.586,1.386,0.948,2.274,0.948h10.472c1.766,0,3.203-1.437,3.203-3.204c0-1.766-1.438-3.204-3.203-3.204h-7.268v-7.145     c0.6-2.132-0.441-4.436-2.528-5.351c-0.56-0.246-1.144-0.367-1.719-0.379c0.873,0.747,1.429,1.854,1.429,3.091     c0,2.244-1.824,4.069-4.068,4.069h-3.547l-4.923,11.217c-1.562,0.259-2.94,1.332-3.514,2.93     c-0.497,1.386-0.275,2.855,0.474,3.999l-0.996,2.269l-10.363-3.719c-2.347-0.842-4.932,0.378-5.772,2.725     c-0.842,2.346,0.377,4.931,2.725,5.772l14.328,5.142c0.015,0.006,0.026,0.008,0.039,0.014c0.229,0.078,0.458,0.14,0.689,0.181     c0.019,0.004,0.036,0.008,0.057,0.011c0.111,0.02,0.223,0.033,0.333,0.043c0.022,0.002,0.043,0.004,0.065,0.006     c0.109,0.008,0.222,0.014,0.332,0.014c0.003,0,0.006,0,0.009,0c0.04,0,0.079-0.003,0.118-0.004     c0.069-0.002,0.142-0.002,0.211-0.008c0.058-0.004,0.113-0.013,0.172-0.019c0.053-0.006,0.104-0.011,0.159-0.019     c0.058-0.01,0.113-0.021,0.171-0.031c0.053-0.01,0.104-0.02,0.155-0.03c0.056-0.013,0.109-0.028,0.164-0.042     c0.054-0.014,0.105-0.027,0.156-0.042c0.053-0.016,0.105-0.034,0.158-0.052c0.053-0.02,0.105-0.036,0.156-0.057     c0.05-0.02,0.099-0.041,0.146-0.062c0.055-0.022,0.106-0.045,0.159-0.069c0.047-0.022,0.092-0.047,0.138-0.068     c0.055-0.028,0.106-0.057,0.159-0.086c0.043-0.024,0.085-0.051,0.127-0.075c0.054-0.032,0.105-0.066,0.158-0.101     c0.039-0.026,0.079-0.055,0.119-0.084c0.051-0.035,0.102-0.074,0.149-0.112c0.039-0.03,0.076-0.061,0.114-0.091     c0.048-0.041,0.095-0.082,0.142-0.123c0.036-0.034,0.072-0.068,0.107-0.104c0.045-0.042,0.087-0.086,0.129-0.13     c0.036-0.038,0.072-0.076,0.107-0.116c0.038-0.043,0.074-0.088,0.111-0.133c0.035-0.043,0.07-0.087,0.104-0.131     c0.033-0.044,0.063-0.089,0.096-0.135c0.034-0.049,0.068-0.098,0.103-0.147c0.027-0.043,0.055-0.09,0.082-0.135     c0.031-0.054,0.063-0.107,0.094-0.162c0.025-0.048,0.049-0.099,0.074-0.146c0.024-0.056,0.055-0.109,0.08-0.166     c0.002-0.008,0.006-0.015,0.01-0.021l2.572-5.862l9.492,3.406l4.512,8.256c0.819,1.5,2.367,2.351,3.965,2.351     c0.73,0,1.473-0.179,2.16-0.556C436.557,75.062,437.361,72.321,436.166,70.134z"/>
		</g>
	</g>
</g>
<g>
	<g>
		<g>
			<path d="M648.599,22.726c1.772,0,3.224,1.45,3.224,3.223v44.572c0,1.771-1.45,3.223-3.224,3.223h-26.861     c-1.771,0-3.224-1.451-3.224-3.223V25.949c0-1.772,1.451-3.223,3.224-3.223H648.599 M648.599,20.588h-26.861     c-2.955,0-5.359,2.405-5.359,5.36V70.52c0,2.957,2.404,5.36,5.359,5.36h26.861c2.956,0,5.36-2.405,5.36-5.36v-44.57     C653.959,22.993,651.555,20.588,648.599,20.588L648.599,20.588z"/>
		</g>
		<g>
			<g>
				<path d="M649.18,46.757c0,0.709-0.58,1.289-1.289,1.289h-25.444c-0.709,0-1.289-0.58-1.289-1.289V26.65      c0-0.709,0.58-1.289,1.289-1.289h25.444c0.709,0,1.289,0.58,1.289,1.289V46.757z"/>
			</g>
		</g>
		<g>
			<path d="M635.168,50.615c-5.51,0-9.979,4.467-9.979,9.978s4.47,9.98,9.979,9.98c5.511,0,9.979-4.47,9.979-9.98     S640.679,50.615,635.168,50.615z M635.168,64.829c-2.34,0-4.233-1.897-4.233-4.236s1.895-4.235,4.233-4.235     s4.236,1.896,4.236,4.235S637.508,64.829,635.168,64.829z"/>
		</g>
	</g>
	<g>
		<path d="M661.986,56.275l-3.602-3.601c1.188-1.187,1.839-2.764,1.839-4.441c0-1.678-0.651-3.254-1.838-4.441l3.602-3.6    c2.146,2.148,3.33,5.003,3.33,8.041S664.134,54.128,661.986,56.275z"/>
	</g>
	<g>
		<path d="M668.228,62.518l-3.601-3.602c2.853-2.854,4.425-6.646,4.425-10.681s-1.572-7.829-4.425-10.682l3.601-3.6    c3.814,3.814,5.916,8.887,5.916,14.282S672.042,58.702,668.228,62.518z"/>
	</g>
	<g>
		<path d="M675.626,69.915l-3.602-3.601c4.83-4.83,7.487-11.25,7.487-18.08c0-6.829-2.657-13.25-7.487-18.079l3.602-3.601    c5.791,5.791,8.979,13.489,8.979,21.679S681.417,64.124,675.626,69.915z"/>
	</g>
</g>
<g>
	<path fill="#000000" d="M992.144,79.975c-6.824,0-12.599-4.57-14.431-10.811c-0.002,0.1-0.007,0.199-0.007,0.3   c0,7.974,6.464,14.437,14.438,14.437s14.438-6.463,14.438-14.437c0-0.101-0.006-0.2-0.008-0.3   C1004.74,75.404,998.967,79.975,992.144,79.975z"/>
</g>
<g>
	<path fill="#000000" d="M992.738,60.241c-0.514,0.513-0.729,1.071-0.644,1.678s0.467,1.249,1.146,1.929   c0.679,0.68,1.32,1.062,1.922,1.148s1.16-0.127,1.672-0.641c1.029-1.028,0.86-2.228-0.507-3.595   C994.959,59.391,993.762,59.217,992.738,60.241z"/>
	<path fill="#000000" d="M1039.029,18.777c-4.763-3.486-8.261-4.603-10.396-3.322c-1.684,1.009-1.872,3.101-1.718,4.178   c0.159,1.112,0.771,2.006,1.721,2.516c1.929,1.035,5.205,0.499,9.743-1.593c4.385,3.584,4.682,10.143,3.454,15.191   c-1.229,5.055-4.455,10.46-9.153,12.465c-2.134-2.051-5.766-3.046-12.158-4.603c-1.146-0.279-2.264-0.595-3.34-0.942   c-0.099-0.424-0.166-0.867-0.2-1.326c-0.442-5.845-3.727-11.169-7.638-12.385c-2.055-0.639-3.965-0.025-5.379,1.73   c-1.109,1.376-1.412,2.94-0.877,4.522c1.233,3.638,6.711,6.828,12.631,8.871c0.581,1.642,1.596,3.058,3.003,4.174   c2.87,2.272,7.188,3.161,11.846,2.433c0.524-0.082,1.047-0.202,1.561-0.356c0.459,0.665,0.777,1.442,1.039,2.394   c0.473,1.728,0.41,5.039-1.215,6.99c-0.971,1.167-2.373,1.68-4.172,1.525c-4.701-0.404-5.3-2.09-6.203-4.641   c-1.269-3.576-3.003-8.476-16.4-11.367c-1.622-0.35-2.838-1.306-3.614-2.843c-1.487-2.945-1.034-7.225,0.183-9.932   c1.335-2.968,0.174-6.265-2.761-7.839c-3.183-1.707-7.927-0.996-11.353,4.44c-1.86,2.953-2.384,5.888-1.554,8.725   c1.695,5.794,8.433,9.015,8.729,9.154c4.133,1.867,6.855,4.475,8.09,7.751c0.312,0.822,0.508,1.644,0.623,2.439   c-2.487-3.619-6.654-5.992-11.379-5.992c-7.621,0-13.799,6.18-13.799,13.801s6.178,13.799,13.799,13.799   s13.802-6.178,13.802-13.799c0-1.391-0.209-2.731-0.591-3.996c0.234-1.959,0.175-4.383-0.757-6.867   c-1.407-3.752-4.45-6.707-9.03-8.776c-0.063-0.029-6.295-3.019-7.756-8.029c-0.677-2.316-0.223-4.755,1.35-7.248   c2.806-4.452,6.527-5.123,8.972-3.812c1.726,0.925,3.076,3.043,1.968,5.508c-1.35,3.001-1.971,7.876-0.146,11.486   c1.021,2.019,2.695,3.331,4.846,3.794c12.413,2.678,13.893,6.851,15.08,10.204c0.971,2.742,1.889,5.333,7.75,5.836   c2.387,0.206,4.361-0.544,5.713-2.168c1.943-2.333,2.26-6.104,1.568-8.624c-0.273-0.999-0.619-1.847-1.064-2.58   c1.849-0.878,3.57-2.242,5.088-4.044c2.142-2.541,3.795-5.896,4.657-9.447C1045.379,28.81,1043.631,22.145,1039.029,18.777z    M1029.491,20.558c-0.45-0.242-0.708-0.627-0.787-1.18c-0.1-0.688,0.05-1.889,0.859-2.375c0.202-0.122,0.548-0.252,1.093-0.252   c1.077,0,2.935,0.508,6.027,2.585C1032.146,21.283,1030.241,20.96,1029.491,20.558z M1004.801,34.628   c-0.338-0.995-0.15-1.914,0.57-2.81c0.699-0.866,1.513-1.3,2.43-1.3c0.324,0,0.66,0.054,1.009,0.162   c2.797,0.87,5.944,5.146,6.373,10.797c0.014,0.172,0.03,0.343,0.053,0.512C1009.747,39.938,1005.647,37.129,1004.801,34.628z    M1030.289,48.901c-4.16,0.652-7.969-0.102-10.444-2.063c-0.74-0.586-1.339-1.262-1.798-2.021c0.687,0.199,1.371,0.381,2.049,0.546   c5.559,1.353,8.662,2.226,10.513,3.482C1030.502,48.867,1030.396,48.885,1030.289,48.901z M991.146,72.044l-2.325-2.326   l-5.774-1.739l1.398-1.396l3.765,1.244l-1.236-3.774l1.391-1.39l1.696,5.734l2.367,2.366L991.146,72.044z M997.918,65.438   c-0.932,0.932-1.918,1.377-2.958,1.336c-1.04-0.043-2.066-0.569-3.078-1.582c-1.013-1.012-1.536-2.035-1.568-3.069   c-0.033-1.035,0.418-2.019,1.353-2.955c0.935-0.935,1.919-1.38,2.952-1.337c1.033,0.042,2.055,0.568,3.064,1.579   c1.006,1.006,1.53,2.03,1.571,3.071C999.295,63.52,998.85,64.505,997.918,65.438z"/>
</g>
</svg>