<svg xmlns="http://www.w3.org/2000/svg" xmlns:xlink="http://www.w3.org/1999/xlink" version="1.1" x="0px" y="0px" width="100px" height="100px" viewBox="0 0 100 100" enable-background="new 0 0 100 100" xml:space="preserve">
<g id="Captions">
</g>
<g id="Your_Icon">
	<path d="M50,0C22.385,0,0,22.385,0,50c0,27.613,22.385,50,50,50s50-22.387,50-50C100,22.385,77.615,0,50,0z M72.853,89.583   l-3.328-5.766l-2.817-4.879l-6.29-10.896L60.36,68.06L50.11,78.146l0.003,0.583l13.218,3.465L50.137,95.175l-0.023-16.446   L50,78.699l-13.414,3.516l13.288,13.218v0.267c-8.277-0.021-16.038-2.247-22.729-6.116l3.33-5.766v-0.003l2.817-4.879l6.288-10.893   l-0.041-0.04l-14.112-3.906l0.054-0.201l-0.5,0.287l0.164,0.167l3.64,13.293l-18.193-5.035l-0.239,0.135   C6.503,66.043,4.301,58.279,4.301,50h6.648h5.634h12.581l0.017-0.059l-3.675-14.175l0.064-0.017l-0.391-0.226l-0.034,0.126   l-9.693,9.799l-4.737-18.271l14.465,8.347l3.627-13.25l-18.092,4.9l-0.236-0.135c4.011-6.887,9.769-12.632,16.669-16.623   l3.328,5.764l2.817,4.879l6.288,10.895l0.059-0.016l10.387-10.218v-0.428L50,21.299l-13.331-3.495L50,4.688V4.301   c8.325,0,16.129,2.227,22.853,6.116l-3.328,5.764l-2.817,4.879l-6.29,10.895l0.043,0.043l14.011,3.877l0.387-0.221l-0.003-0.003   l-3.64-13.296l18.118,5.017l-14.476,8.282l9.747,9.853l4.805-18.113l0.238-0.135c3.85,6.699,6.052,14.463,6.052,22.742h-6.648   h-5.637H70.836l-0.016,0.057l3.599,13.885l0.535,0.309l9.592-9.696l4.645,17.911L74.954,64.25l-0.1,0.1l-3.661,13.373l18.092-4.897   l0.233,0.137C85.511,79.85,79.75,85.592,72.853,89.583z"/>
	<path d="M62.097,50h8.739l3.736-14.097l-0.102-0.029l-14.024,8.021C61.495,45.686,62.097,47.771,62.097,50z"/>
	<path d="M74.419,63.941l-13.876-8.009c-1.064,1.888-2.621,3.46-4.494,4.546l4.368,7.564l14.078-3.812L74.419,63.941z"/>
	<polygon points="50.127,4.564 50,4.688 50.026,21.293 63.414,17.782  "/>
	<path d="M50.264,50l10.279,5.933c0.989-1.753,1.554-3.776,1.554-5.933H50.264z"/>
	<path d="M60.446,43.896c-1.062-1.812-2.58-3.323-4.397-4.374L50.11,49.81L60.446,43.896z"/>
	<path d="M56.049,39.521l4.368-7.567L50.078,21.67l-0.052,0.051l0.024,16.183C52.234,37.911,54.282,38.5,56.049,39.521z"/>
	<path d="M50.086,62.097c2.17-0.016,4.207-0.603,5.963-1.618L50.07,50.121L50.086,62.097z"/>
	<path d="M50,62.097c-2.204,0-4.271-0.592-6.051-1.618l-4.368,7.564l10.341,10.288l0.188-0.186l-0.024-16.049   C50.057,62.097,50.029,62.097,50,62.097z"/>
	<path d="M50.07,50.121V50h0.193l-0.193-0.113v-0.008l0.04-0.069l-0.04,0.021l-0.02-11.928c-0.016,0-0.034,0-0.051,0   c-2.201,0-4.269,0.589-6.049,1.618l5.917,10.25l-10.279-5.933C38.52,45.643,37.903,47.75,37.903,50h11.871l-10.331,5.909   c1.062,1.897,2.624,3.478,4.506,4.569L50,50L50.07,50.121z"/>
	<path d="M43.951,39.521l-4.37-7.567L25.57,35.75l14.019,8.089C40.648,42.051,42.153,40.562,43.951,39.521z"/>
	<path d="M37.903,50h-8.739l-3.683,13.896l13.962-7.986C38.462,54.161,37.903,52.146,37.903,50z"/>
	<polygon points="10.653,72.379 24.981,64.183 15.393,54.492  "/>
</g>
</svg>