<svg xmlns="http://www.w3.org/2000/svg" xmlns:xlink="http://www.w3.org/1999/xlink" version="1.1" id="Layer_1" x="0px" y="0px" width="100px" height="100px" viewBox="0 0 100 100" enable-background="new 0 0 100 100" xml:space="preserve">
<g>
	<path d="M45.96,52.361l4.644-7.921c-1.121-0.14-10.248,2.007-14.873,3.122c1.686-2.688,5.791-6.894,15.032-7.075   c0,0,23.642,3.75,19.357-13.215c0,0-0.425,7.514-4.29,6.786c0,0-4.46-2.321-1.718-13.214c0,0-5.314,4.822-3.085,13.036   c0,0-4.287,4.286-11.999,0.179c0,0-3.771-8.125,3.599-27.679c0,0-8.7,6.25-8.186,27.5c0,0-2.681,5.491-7.159,3.508l0.004-0.026   c-0.044-0.005-0.086-0.023-0.129-0.03c-0.736-0.346-1.521-0.898-2.348-1.706c-4.193-5.849-4.635-24.424-4.635-24.424   c-5.655,14.464,1.542,28.036,1.542,28.036c-0.92,2.921-1.242,5.568-1.218,7.899c-4-1.524-11.541-3.731-14.165,0.063   c0,0-1.472,7.776,8.86,9.918l2.544,16.111c2,16.932,48.531,5.6,48.531,5.6l5.191-8.6C81.461,70.229,68.271,62.029,45.96,52.361z    M39.491,65.983c-2.803,0-5.075-2.272-5.075-5.075s2.272-5.076,5.075-5.076c2.803,0,5.075,2.273,5.075,5.076   S42.294,65.983,39.491,65.983z"/>
	<circle cx="39.491" cy="60.908" r="2.671"/>
</g>
</svg>