<svg xmlns="http://www.w3.org/2000/svg" xmlns:xlink="http://www.w3.org/1999/xlink" version="1.1" id="Layer_1" x="0px" y="0px" width="100px" height="100px" viewBox="0 0 100 100" enable-background="new 0 0 100 100" xml:space="preserve">
<path d="M95.973,27.164L50.474,6.588L4.029,27.164l3.969,2.09l0,0l9.408,4.948v-6.32l14.868,8.584v-3.55l17.567,9.774l17.567-9.774  v3.55l14.867-8.583v6.487L95.973,27.164z"/>
<path d="M4.029,72.836l45.497,20.576l46.447-20.576l-3.972-2.089l0,0l-9.405-4.949v6.32l-14.869-8.584v3.55l-17.567-9.773  l-17.567,9.773v-3.55l-14.867,8.583V65.63L4.029,72.836z"/>
<polygon points="97.248,64.15 87.221,55.102 93.282,55.102 85.221,50 93.282,44.898 87.221,44.898 97.248,35.849 90.716,37.61   100,26.77 80.766,36.889 80.766,30.401 65.896,38.985 65.896,35.436 49.841,44.705 33.785,35.435 33.785,38.984 18.917,30.4   18.917,36.722 0,26.77 9.284,37.61 2.753,35.849 12.78,44.898 6.717,44.898 14.779,50 6.717,55.102 12.78,55.102 2.753,64.15   9.284,62.391 0,73.23 19.236,63.111 19.236,69.6 34.104,61.016 34.104,64.564 50.158,55.296 66.215,64.564 66.215,61.016   81.083,69.6 81.083,63.279 100,73.23 90.716,62.391 "/>
</svg>